<svg width="376" height="85" viewBox="0 0 376 85" fill="none" xmlns="http://www.w3.org/2000/svg">
<rect x="0.675781" y="0.383789" width="374.688" height="83.975" rx="8.32639" fill="white" fill-opacity="0.05"/>
<rect x="1.0921" y="0.800108" width="373.855" height="83.1424" rx="7.91007" stroke="url(#paint0_linear_352_437)" stroke-opacity="0.2" stroke-width="0.832639"/>
<rect x="85.6348" y="23.2305" width="38.2812" height="38.2812" rx="6.96023" fill="#666666" fill-opacity="0.15"/>
<g clip-path="url(#clip0_352_437)">
<path d="M103.031 35.4109C103.031 34.4504 103.811 33.6709 104.771 33.6709C105.732 33.6709 106.511 34.4504 106.511 35.4109V49.3308C106.511 50.2913 105.732 51.0708 104.771 51.0708C103.811 51.0708 103.031 50.2913 103.031 49.3308V35.4109Z" fill="white"/>
<path d="M96.0703 42.3708C96.0703 41.4104 96.8498 40.6309 97.8103 40.6309H111.73C112.691 40.6309 113.47 41.4104 113.47 42.3708C113.47 43.3313 112.691 44.1108 111.73 44.1108H97.8103C96.8498 44.1108 96.0703 43.3313 96.0703 42.3708Z" fill="white"/>
</g>
<path d="M143.966 48.6111C142.566 48.6111 141.373 48.3644 140.386 47.8711C139.413 47.3644 138.666 46.5844 138.146 45.5311C137.626 44.4778 137.366 43.1378 137.366 41.5111C137.366 39.1111 137.946 37.3311 139.106 36.1711C140.28 34.9978 141.906 34.4111 143.986 34.4111C145.133 34.4111 146.16 34.6044 147.066 34.9911C147.986 35.3778 148.706 35.9578 149.226 36.7311C149.76 37.4911 150.026 38.4644 150.026 39.6511H147.746C147.746 38.9178 147.593 38.3044 147.286 37.8111C146.98 37.3178 146.54 36.9444 145.966 36.6911C145.406 36.4378 144.753 36.3111 144.006 36.3111C143.073 36.3111 142.28 36.4978 141.626 36.8711C140.986 37.2311 140.5 37.7778 140.166 38.5111C139.846 39.2444 139.686 40.1778 139.686 41.3111V41.7511C139.686 42.8844 139.846 43.8178 140.166 44.5511C140.5 45.2844 140.986 45.8311 141.626 46.1911C142.266 46.5378 143.06 46.7111 144.006 46.7111C144.78 46.7111 145.453 46.5911 146.026 46.3511C146.6 46.0978 147.04 45.7244 147.346 45.2311C147.666 44.7378 147.826 44.1244 147.826 43.3911H150.026C150.026 44.5778 149.76 45.5578 149.226 46.3311C148.706 47.1044 147.986 47.6778 147.066 48.0511C146.16 48.4244 145.126 48.6111 143.966 48.6111ZM152.238 48.3711V37.8511H153.958L154.138 39.5511H154.258C154.378 39.2178 154.532 38.9044 154.718 38.6111C154.918 38.3178 155.172 38.0778 155.478 37.8911C155.798 37.7044 156.185 37.6111 156.638 37.6111C156.852 37.6111 157.038 37.6311 157.198 37.6711C157.372 37.7111 157.505 37.7444 157.598 37.7711V39.7311H156.898C156.472 39.7311 156.092 39.7978 155.758 39.9311C155.438 40.0644 155.165 40.2644 154.938 40.5311C154.725 40.7844 154.565 41.0978 154.458 41.4711C154.365 41.8444 154.318 42.2644 154.318 42.7311V48.3711H152.238ZM163.317 48.6111C162.237 48.6111 161.331 48.4178 160.597 48.0311C159.877 47.6311 159.331 47.0244 158.957 46.2111C158.584 45.3978 158.397 44.3644 158.397 43.1111C158.397 41.8444 158.584 40.8111 158.957 40.0111C159.331 39.1978 159.884 38.5978 160.617 38.2111C161.351 37.8111 162.264 37.6111 163.357 37.6111C164.357 37.6111 165.191 37.8044 165.857 38.1911C166.537 38.5644 167.051 39.1378 167.397 39.9111C167.744 40.6844 167.917 41.6578 167.917 42.8311V43.6311H160.537C160.564 44.3778 160.677 45.0044 160.877 45.5111C161.077 46.0044 161.377 46.3711 161.777 46.6111C162.191 46.8378 162.711 46.9511 163.337 46.9511C163.724 46.9511 164.071 46.9044 164.377 46.8111C164.684 46.7044 164.944 46.5578 165.157 46.3711C165.371 46.1711 165.537 45.9378 165.657 45.6711C165.777 45.3911 165.837 45.0778 165.837 44.7311H167.877C167.877 45.3578 167.771 45.9111 167.557 46.3911C167.344 46.8711 167.031 47.2778 166.617 47.6111C166.217 47.9311 165.737 48.1778 165.177 48.3511C164.617 48.5244 163.997 48.6111 163.317 48.6111ZM160.577 42.1111H165.737C165.737 41.5911 165.677 41.1578 165.557 40.8111C165.451 40.4511 165.291 40.1578 165.077 39.9311C164.864 39.7044 164.611 39.5444 164.317 39.4511C164.024 39.3444 163.691 39.2911 163.317 39.2911C162.757 39.2911 162.277 39.3911 161.877 39.5911C161.491 39.7911 161.191 40.1044 160.977 40.5311C160.764 40.9444 160.631 41.4711 160.577 42.1111ZM172.691 48.6111C172.358 48.6111 171.998 48.5711 171.611 48.4911C171.225 48.4111 170.858 48.2644 170.511 48.0511C170.178 47.8378 169.905 47.5444 169.691 47.1711C169.478 46.7844 169.371 46.2844 169.371 45.6711C169.371 44.9511 169.538 44.3578 169.871 43.8911C170.205 43.4244 170.671 43.0578 171.271 42.7911C171.871 42.5244 172.585 42.3378 173.411 42.2311C174.251 42.1244 175.165 42.0711 176.151 42.0711V41.0311C176.151 40.6844 176.091 40.3778 175.971 40.1111C175.865 39.8444 175.658 39.6378 175.351 39.4911C175.058 39.3444 174.631 39.2711 174.071 39.2711C173.511 39.2711 173.071 39.3444 172.751 39.4911C172.445 39.6244 172.225 39.7978 172.091 40.0111C171.971 40.2111 171.911 40.4311 171.911 40.6711V40.9711H169.911C169.898 40.9044 169.891 40.8378 169.891 40.7711C169.891 40.7044 169.891 40.6244 169.891 40.5311C169.891 39.9044 170.065 39.3778 170.411 38.9511C170.771 38.5111 171.271 38.1778 171.911 37.9511C172.551 37.7244 173.291 37.6111 174.131 37.6111C175.038 37.6111 175.791 37.7444 176.391 38.0111C177.005 38.2644 177.465 38.6311 177.771 39.1111C178.078 39.5911 178.231 40.1711 178.231 40.8511V46.1911C178.231 46.4444 178.291 46.6244 178.411 46.7311C178.545 46.8378 178.698 46.8911 178.871 46.8911H179.591V48.2911C179.431 48.3578 179.231 48.4244 178.991 48.4911C178.751 48.5578 178.471 48.5911 178.151 48.5911C177.791 48.5911 177.485 48.5244 177.231 48.3911C176.991 48.2711 176.791 48.0978 176.631 47.8711C176.485 47.6311 176.385 47.3644 176.331 47.0711H176.211C175.971 47.3778 175.678 47.6511 175.331 47.8911C174.998 48.1178 174.611 48.2911 174.171 48.4111C173.731 48.5444 173.238 48.6111 172.691 48.6111ZM173.271 46.8911C173.685 46.8911 174.065 46.8311 174.411 46.7111C174.771 46.5778 175.078 46.3978 175.331 46.1711C175.585 45.9311 175.785 45.6511 175.931 45.3311C176.078 44.9978 176.151 44.6378 176.151 44.2511V43.5511C175.231 43.5511 174.425 43.6044 173.731 43.7111C173.038 43.8178 172.498 44.0178 172.111 44.3111C171.725 44.5911 171.531 44.9844 171.531 45.4911C171.531 45.7978 171.598 46.0578 171.731 46.2711C171.865 46.4711 172.065 46.6244 172.331 46.7311C172.598 46.8378 172.911 46.8911 173.271 46.8911ZM183.648 48.6111C183.048 48.6111 182.574 48.4978 182.228 48.2711C181.894 48.0311 181.654 47.7311 181.508 47.3711C181.374 46.9978 181.308 46.6044 181.308 46.1911V39.5711H179.988V37.8511H181.348L181.728 34.9111H183.388V37.8511H185.288V39.5711H183.388V45.9511C183.388 46.2578 183.454 46.4911 183.588 46.6511C183.721 46.8111 183.941 46.8911 184.248 46.8911H185.288V48.2911C185.154 48.3444 184.988 48.3911 184.788 48.4311C184.601 48.4844 184.408 48.5244 184.208 48.5511C184.008 48.5911 183.821 48.6111 183.648 48.6111ZM191.481 48.6111C190.401 48.6111 189.495 48.4178 188.761 48.0311C188.041 47.6311 187.495 47.0244 187.121 46.2111C186.748 45.3978 186.561 44.3644 186.561 43.1111C186.561 41.8444 186.748 40.8111 187.121 40.0111C187.495 39.1978 188.048 38.5978 188.781 38.2111C189.515 37.8111 190.428 37.6111 191.521 37.6111C192.521 37.6111 193.355 37.8044 194.021 38.1911C194.701 38.5644 195.215 39.1378 195.561 39.9111C195.908 40.6844 196.081 41.6578 196.081 42.8311V43.6311H188.701C188.728 44.3778 188.841 45.0044 189.041 45.5111C189.241 46.0044 189.541 46.3711 189.941 46.6111C190.355 46.8378 190.875 46.9511 191.501 46.9511C191.888 46.9511 192.235 46.9044 192.541 46.8111C192.848 46.7044 193.108 46.5578 193.321 46.3711C193.535 46.1711 193.701 45.9378 193.821 45.6711C193.941 45.3911 194.001 45.0778 194.001 44.7311H196.041C196.041 45.3578 195.935 45.9111 195.721 46.3911C195.508 46.8711 195.195 47.2778 194.781 47.6111C194.381 47.9311 193.901 48.1778 193.341 48.3511C192.781 48.5244 192.161 48.6111 191.481 48.6111ZM188.741 42.1111H193.901C193.901 41.5911 193.841 41.1578 193.721 40.8111C193.615 40.4511 193.455 40.1578 193.241 39.9311C193.028 39.7044 192.775 39.5444 192.481 39.4511C192.188 39.3444 191.855 39.2911 191.481 39.2911C190.921 39.2911 190.441 39.3911 190.041 39.5911C189.655 39.7911 189.355 40.1044 189.141 40.5311C188.928 40.9444 188.795 41.4711 188.741 42.1111ZM208.517 48.6111C207.117 48.6111 205.924 48.3644 204.937 47.8711C203.964 47.3644 203.217 46.5844 202.697 45.5311C202.177 44.4778 201.917 43.1378 201.917 41.5111C201.917 39.1111 202.497 37.3311 203.657 36.1711C204.83 34.9978 206.457 34.4111 208.537 34.4111C209.684 34.4111 210.71 34.6044 211.617 34.9911C212.537 35.3778 213.257 35.9578 213.777 36.7311C214.31 37.4911 214.577 38.4644 214.577 39.6511H212.297C212.297 38.9178 212.144 38.3044 211.837 37.8111C211.53 37.3178 211.09 36.9444 210.517 36.6911C209.957 36.4378 209.304 36.3111 208.557 36.3111C207.624 36.3111 206.83 36.4978 206.177 36.8711C205.537 37.2311 205.05 37.7778 204.717 38.5111C204.397 39.2444 204.237 40.1778 204.237 41.3111V41.7511C204.237 42.8844 204.397 43.8178 204.717 44.5511C205.05 45.2844 205.537 45.8311 206.177 46.1911C206.817 46.5378 207.61 46.7111 208.557 46.7111C209.33 46.7111 210.004 46.5911 210.577 46.3511C211.15 46.0978 211.59 45.7244 211.897 45.2311C212.217 44.7378 212.377 44.1244 212.377 43.3911H214.577C214.577 44.5778 214.31 45.5578 213.777 46.3311C213.257 47.1044 212.537 47.6778 211.617 48.0511C210.71 48.4244 209.677 48.6111 208.517 48.6111ZM216.789 48.3711V33.9111H218.869V39.1111H219.009C219.263 38.7911 219.549 38.5244 219.869 38.3111C220.189 38.0844 220.549 37.9111 220.949 37.7911C221.349 37.6711 221.789 37.6111 222.269 37.6111C222.936 37.6111 223.523 37.7311 224.029 37.9711C224.536 38.1978 224.929 38.5711 225.209 39.0911C225.503 39.6111 225.649 40.3111 225.649 41.1911V48.3711H223.569V41.5111C223.569 41.1111 223.516 40.7778 223.409 40.5111C223.316 40.2444 223.176 40.0311 222.989 39.8711C222.803 39.7111 222.583 39.5978 222.329 39.5311C222.076 39.4644 221.796 39.4311 221.489 39.4311C221.009 39.4311 220.569 39.5444 220.169 39.7711C219.783 39.9978 219.469 40.3178 219.229 40.7311C218.989 41.1444 218.869 41.6378 218.869 42.2111V48.3711H216.789ZM230.914 48.6111C230.581 48.6111 230.221 48.5711 229.834 48.4911C229.447 48.4111 229.081 48.2644 228.734 48.0511C228.401 47.8378 228.127 47.5444 227.914 47.1711C227.701 46.7844 227.594 46.2844 227.594 45.6711C227.594 44.9511 227.761 44.3578 228.094 43.8911C228.427 43.4244 228.894 43.0578 229.494 42.7911C230.094 42.5244 230.807 42.3378 231.634 42.2311C232.474 42.1244 233.387 42.0711 234.374 42.0711V41.0311C234.374 40.6844 234.314 40.3778 234.194 40.1111C234.087 39.8444 233.881 39.6378 233.574 39.4911C233.281 39.3444 232.854 39.2711 232.294 39.2711C231.734 39.2711 231.294 39.3444 230.974 39.4911C230.667 39.6244 230.447 39.7978 230.314 40.0111C230.194 40.2111 230.134 40.4311 230.134 40.6711V40.9711H228.134C228.121 40.9044 228.114 40.8378 228.114 40.7711C228.114 40.7044 228.114 40.6244 228.114 40.5311C228.114 39.9044 228.287 39.3778 228.634 38.9511C228.994 38.5111 229.494 38.1778 230.134 37.9511C230.774 37.7244 231.514 37.6111 232.354 37.6111C233.261 37.6111 234.014 37.7444 234.614 38.0111C235.227 38.2644 235.687 38.6311 235.994 39.1111C236.301 39.5911 236.454 40.1711 236.454 40.8511V46.1911C236.454 46.4444 236.514 46.6244 236.634 46.7311C236.767 46.8378 236.921 46.8911 237.094 46.8911H237.814V48.2911C237.654 48.3578 237.454 48.4244 237.214 48.4911C236.974 48.5578 236.694 48.5911 236.374 48.5911C236.014 48.5911 235.707 48.5244 235.454 48.3911C235.214 48.2711 235.014 48.0978 234.854 47.8711C234.707 47.6311 234.607 47.3644 234.554 47.0711H234.434C234.194 47.3778 233.901 47.6511 233.554 47.8911C233.221 48.1178 232.834 48.2911 232.394 48.4111C231.954 48.5444 231.461 48.6111 230.914 48.6111ZM231.494 46.8911C231.907 46.8911 232.287 46.8311 232.634 46.7111C232.994 46.5778 233.301 46.3978 233.554 46.1711C233.807 45.9311 234.007 45.6511 234.154 45.3311C234.301 44.9978 234.374 44.6378 234.374 44.2511V43.5511C233.454 43.5511 232.647 43.6044 231.954 43.7111C231.261 43.8178 230.721 44.0178 230.334 44.3111C229.947 44.5911 229.754 44.9844 229.754 45.4911C229.754 45.7978 229.821 46.0578 229.954 46.2711C230.087 46.4711 230.287 46.6244 230.554 46.7311C230.821 46.8378 231.134 46.8911 231.494 46.8911ZM239.25 48.3711V37.8511H240.97L241.15 39.5511H241.27C241.39 39.2178 241.543 38.9044 241.73 38.6111C241.93 38.3178 242.183 38.0778 242.49 37.8911C242.81 37.7044 243.197 37.6111 243.65 37.6111C243.863 37.6111 244.05 37.6311 244.21 37.6711C244.383 37.7111 244.517 37.7444 244.61 37.7711V39.7311H243.91C243.483 39.7311 243.103 39.7978 242.77 39.9311C242.45 40.0644 242.177 40.2644 241.95 40.5311C241.737 40.7844 241.577 41.0978 241.47 41.4711C241.377 41.8444 241.33 42.2644 241.33 42.7311V48.3711H239.25ZM248.629 48.6111C248.296 48.6111 247.936 48.5711 247.549 48.4911C247.162 48.4111 246.796 48.2644 246.449 48.0511C246.116 47.8378 245.842 47.5444 245.629 47.1711C245.416 46.7844 245.309 46.2844 245.309 45.6711C245.309 44.9511 245.476 44.3578 245.809 43.8911C246.142 43.4244 246.609 43.0578 247.209 42.7911C247.809 42.5244 248.522 42.3378 249.349 42.2311C250.189 42.1244 251.102 42.0711 252.089 42.0711V41.0311C252.089 40.6844 252.029 40.3778 251.909 40.1111C251.802 39.8444 251.596 39.6378 251.289 39.4911C250.996 39.3444 250.569 39.2711 250.009 39.2711C249.449 39.2711 249.009 39.3444 248.689 39.4911C248.382 39.6244 248.162 39.7978 248.029 40.0111C247.909 40.2111 247.849 40.4311 247.849 40.6711V40.9711H245.849C245.836 40.9044 245.829 40.8378 245.829 40.7711C245.829 40.7044 245.829 40.6244 245.829 40.5311C245.829 39.9044 246.002 39.3778 246.349 38.9511C246.709 38.5111 247.209 38.1778 247.849 37.9511C248.489 37.7244 249.229 37.6111 250.069 37.6111C250.976 37.6111 251.729 37.7444 252.329 38.0111C252.942 38.2644 253.402 38.6311 253.709 39.1111C254.016 39.5911 254.169 40.1711 254.169 40.8511V46.1911C254.169 46.4444 254.229 46.6244 254.349 46.7311C254.482 46.8378 254.636 46.8911 254.809 46.8911H255.529V48.2911C255.369 48.3578 255.169 48.4244 254.929 48.4911C254.689 48.5578 254.409 48.5911 254.089 48.5911C253.729 48.5911 253.422 48.5244 253.169 48.3911C252.929 48.2711 252.729 48.0978 252.569 47.8711C252.422 47.6311 252.322 47.3644 252.269 47.0711H252.149C251.909 47.3778 251.616 47.6511 251.269 47.8911C250.936 48.1178 250.549 48.2911 250.109 48.4111C249.669 48.5444 249.176 48.6111 248.629 48.6111ZM249.209 46.8911C249.622 46.8911 250.002 46.8311 250.349 46.7111C250.709 46.5778 251.016 46.3978 251.269 46.1711C251.522 45.9311 251.722 45.6511 251.869 45.3311C252.016 44.9978 252.089 44.6378 252.089 44.2511V43.5511C251.169 43.5511 250.362 43.6044 249.669 43.7111C248.976 43.8178 248.436 44.0178 248.049 44.3111C247.662 44.5911 247.469 44.9844 247.469 45.4911C247.469 45.7978 247.536 46.0578 247.669 46.2711C247.802 46.4711 248.002 46.6244 248.269 46.7311C248.536 46.8378 248.849 46.8911 249.209 46.8911ZM261.145 48.6111C260.092 48.6111 259.212 48.4178 258.505 48.0311C257.798 47.6311 257.265 47.0244 256.905 46.2111C256.558 45.3978 256.385 44.3644 256.385 43.1111C256.385 41.8578 256.565 40.8311 256.925 40.0311C257.285 39.2178 257.818 38.6111 258.525 38.2111C259.245 37.8111 260.125 37.6111 261.165 37.6111C261.885 37.6111 262.512 37.7044 263.045 37.8911C263.578 38.0644 264.032 38.3311 264.405 38.6911C264.778 39.0378 265.052 39.4711 265.225 39.9911C265.412 40.5111 265.505 41.1044 265.505 41.7711H263.405C263.405 41.2111 263.325 40.7511 263.165 40.3911C263.005 40.0311 262.758 39.7644 262.425 39.5911C262.092 39.4044 261.658 39.3111 261.125 39.3111C260.565 39.3111 260.092 39.4444 259.705 39.7111C259.318 39.9644 259.025 40.3578 258.825 40.8911C258.625 41.4111 258.525 42.0978 258.525 42.9511V43.2911C258.525 44.1044 258.618 44.7844 258.805 45.3311C259.005 45.8644 259.298 46.2644 259.685 46.5311C260.085 46.7844 260.592 46.9111 261.205 46.9111C261.738 46.9111 262.165 46.8178 262.485 46.6311C262.818 46.4311 263.065 46.1511 263.225 45.7911C263.398 45.4178 263.485 44.9711 263.485 44.4511H265.505C265.505 45.0778 265.412 45.6444 265.225 46.1511C265.052 46.6578 264.778 47.0978 264.405 47.4711C264.045 47.8311 263.592 48.1111 263.045 48.3111C262.498 48.5111 261.865 48.6111 261.145 48.6111ZM270.23 48.6111C269.63 48.6111 269.156 48.4978 268.81 48.2711C268.476 48.0311 268.236 47.7311 268.09 47.3711C267.956 46.9978 267.89 46.6044 267.89 46.1911V39.5711H266.57V37.8511H267.93L268.31 34.9111H269.97V37.8511H271.87V39.5711H269.97V45.9511C269.97 46.2578 270.036 46.4911 270.17 46.6511C270.303 46.8111 270.523 46.8911 270.83 46.8911H271.87V48.2911C271.736 48.3444 271.57 48.3911 271.37 48.4311C271.183 48.4844 270.99 48.5244 270.79 48.5511C270.59 48.5911 270.403 48.6111 270.23 48.6111ZM278.063 48.6111C276.983 48.6111 276.077 48.4178 275.343 48.0311C274.623 47.6311 274.077 47.0244 273.703 46.2111C273.33 45.3978 273.143 44.3644 273.143 43.1111C273.143 41.8444 273.33 40.8111 273.703 40.0111C274.077 39.1978 274.63 38.5978 275.363 38.2111C276.097 37.8111 277.01 37.6111 278.103 37.6111C279.103 37.6111 279.937 37.8044 280.603 38.1911C281.283 38.5644 281.797 39.1378 282.143 39.9111C282.49 40.6844 282.663 41.6578 282.663 42.8311V43.6311H275.283C275.31 44.3778 275.423 45.0044 275.623 45.5111C275.823 46.0044 276.123 46.3711 276.523 46.6111C276.937 46.8378 277.457 46.9511 278.083 46.9511C278.47 46.9511 278.817 46.9044 279.123 46.8111C279.43 46.7044 279.69 46.5578 279.903 46.3711C280.117 46.1711 280.283 45.9378 280.403 45.6711C280.523 45.3911 280.583 45.0778 280.583 44.7311H282.623C282.623 45.3578 282.517 45.9111 282.303 46.3911C282.09 46.8711 281.777 47.2778 281.363 47.6111C280.963 47.9311 280.483 48.1778 279.923 48.3511C279.363 48.5244 278.743 48.6111 278.063 48.6111ZM275.323 42.1111H280.483C280.483 41.5911 280.423 41.1578 280.303 40.8111C280.197 40.4511 280.037 40.1578 279.823 39.9311C279.61 39.7044 279.357 39.5444 279.063 39.4511C278.77 39.3444 278.437 39.2911 278.063 39.2911C277.503 39.2911 277.023 39.3911 276.623 39.5911C276.237 39.7911 275.937 40.1044 275.723 40.5311C275.51 40.9444 275.377 41.4711 275.323 42.1111ZM284.778 48.3711V37.8511H286.498L286.678 39.5511H286.798C286.918 39.2178 287.071 38.9044 287.258 38.6111C287.458 38.3178 287.711 38.0778 288.018 37.8911C288.338 37.7044 288.724 37.6111 289.178 37.6111C289.391 37.6111 289.578 37.6311 289.738 37.6711C289.911 37.7111 290.044 37.7444 290.138 37.7711V39.7311H289.438C289.011 39.7311 288.631 39.7978 288.298 39.9311C287.978 40.0644 287.704 40.2644 287.478 40.5311C287.264 40.7844 287.104 41.0978 286.998 41.4711C286.904 41.8444 286.858 42.2644 286.858 42.7311V48.3711H284.778Z" fill="white"/>
<defs>
<linearGradient id="paint0_linear_352_437" x1="188.02" y1="0.383789" x2="188.02" y2="84.3588" gradientUnits="userSpaceOnUse">
<stop stop-color="#EFEFEF"/>
<stop offset="1" stop-color="#EFEFEF" stop-opacity="0.58"/>
</linearGradient>
<clipPath id="clip0_352_437">
<rect width="17.3999" height="17.3999" fill="white" transform="translate(96.0723 33.6709)"/>
</clipPath>
</defs>
</svg>
