<svg width="375" height="84" viewBox="0 0 375 84" fill="none" xmlns="http://www.w3.org/2000/svg">
<rect x="0.260742" y="0.871094" width="374" height="83" rx="8.32639" fill="white" fill-opacity="0.05"/>
<rect x="0.677062" y="1.28741" width="373.167" height="82.1674" rx="7.91007" stroke="url(#paint0_linear_352_418)" stroke-opacity="0.2" stroke-width="0.832639"/>
<path d="M49.0009 46.3711L45.6703 37.232H47.5488L49.7203 43.5201C49.7558 43.609 49.7913 43.7111 49.8269 43.8265C49.8624 43.942 49.8979 44.053 49.9334 44.1596C49.969 44.2573 50.0001 44.3461 50.0267 44.426H50.0933C50.12 44.355 50.1466 44.2706 50.1732 44.1729C50.2088 44.0752 50.2443 43.9731 50.2798 43.8665C50.3153 43.7511 50.3509 43.64 50.3864 43.5335L52.5446 37.232H54.3431L51.0125 46.3711H49.0009ZM57.7948 46.531C57.031 46.531 56.3915 46.4022 55.8764 46.1446C55.3613 45.8782 54.9749 45.4741 54.7174 44.9323C54.4598 44.3905 54.331 43.7022 54.331 42.8673C54.331 42.0236 54.4598 41.3353 54.7174 40.8024C54.9749 40.2606 55.3613 39.861 55.8764 39.6034C56.3915 39.337 57.031 39.2037 57.7948 39.2037C58.5675 39.2037 59.207 39.337 59.7132 39.6034C60.2283 39.861 60.6147 40.2606 60.8722 40.8024C61.1298 41.3353 61.2586 42.0236 61.2586 42.8673C61.2586 43.7022 61.1298 44.3905 60.8722 44.9323C60.6147 45.4741 60.2283 45.8782 59.7132 46.1446C59.207 46.4022 58.5675 46.531 57.7948 46.531ZM57.7948 45.1987C58.2211 45.1987 58.5631 45.1188 58.8206 44.9589C59.0871 44.7902 59.278 44.5415 59.3935 44.2129C59.5178 43.8754 59.58 43.458 59.58 42.9606V42.7741C59.58 42.2767 59.5178 41.8637 59.3935 41.5351C59.278 41.1976 59.0871 40.9489 58.8206 40.7891C58.5631 40.6203 58.2211 40.536 57.7948 40.536C57.3685 40.536 57.0221 40.6203 56.7557 40.7891C56.4981 40.9489 56.3072 41.1976 56.1828 41.5351C56.0674 41.8637 56.0096 42.2767 56.0096 42.7741V42.9606C56.0096 43.458 56.0674 43.8754 56.1828 44.2129C56.3072 44.5415 56.4981 44.7902 56.7557 44.9589C57.0221 45.1188 57.3685 45.1987 57.7948 45.1987ZM62.6395 38.2845V36.7391H64.2648V38.2845H62.6395ZM62.6395 46.3711V39.3636H64.2648V46.3711H62.6395ZM68.9137 46.531C68.1854 46.531 67.577 46.4022 67.0885 46.1446C66.6089 45.8782 66.2492 45.4741 66.0094 44.9323C65.7696 44.3905 65.6497 43.7022 65.6497 42.8673C65.6497 42.0236 65.7696 41.3353 66.0094 40.8024C66.2581 40.2606 66.6222 39.861 67.1018 39.6034C67.5903 39.337 68.1943 39.2037 68.9137 39.2037C69.3844 39.2037 69.8018 39.2615 70.1659 39.3769C70.5301 39.4924 70.8409 39.67 71.0985 39.9098C71.3649 40.1407 71.5648 40.4294 71.698 40.7758C71.8312 41.1221 71.8978 41.5262 71.8978 41.9881H70.2459C70.2459 41.6595 70.197 41.3886 70.0993 41.1754C70.0016 40.9623 69.8506 40.8024 69.6464 40.6958C69.451 40.5804 69.1979 40.5226 68.887 40.5226C68.5229 40.5226 68.2253 40.607 67.9944 40.7758C67.7635 40.9445 67.5903 41.1976 67.4749 41.5351C67.3683 41.8637 67.315 42.2812 67.315 42.7874V42.9606C67.315 43.458 67.3683 43.8754 67.4749 44.2129C67.5903 44.5504 67.7679 44.8035 68.0077 44.9723C68.2475 45.1321 68.5628 45.2121 68.9536 45.2121C69.2556 45.2121 69.5043 45.1588 69.6997 45.0522C69.9039 44.9367 70.0594 44.768 70.1659 44.5459C70.2725 44.3239 70.3258 44.0575 70.3258 43.7466H71.8978C71.8978 44.1818 71.8312 44.5726 71.698 44.919C71.5648 45.2653 71.3694 45.5584 71.1118 45.7982C70.8543 46.038 70.539 46.2201 70.1659 46.3444C69.8018 46.4688 69.3844 46.531 68.9137 46.531ZM76.2925 46.531C75.5465 46.531 74.9248 46.4022 74.4274 46.1446C73.93 45.8782 73.557 45.4741 73.3083 44.9323C73.0596 44.3905 72.9353 43.7022 72.9353 42.8673C72.9353 42.0236 73.0596 41.3353 73.3083 40.8024C73.557 40.2606 73.93 39.861 74.4274 39.6034C74.9248 39.337 75.5465 39.2037 76.2925 39.2037C76.9675 39.2037 77.5315 39.3325 77.9844 39.5901C78.4463 39.8388 78.7926 40.2251 79.0236 40.7491C79.2545 41.2731 79.3699 41.9526 79.3699 42.7874V43.267H74.6006C74.6183 43.7022 74.685 44.0708 74.8004 44.3728C74.9159 44.6658 75.0935 44.8879 75.3333 45.0389C75.582 45.181 75.9062 45.252 76.3058 45.252C76.5101 45.252 76.701 45.2254 76.8787 45.1721C77.0563 45.1188 77.2117 45.0389 77.345 44.9323C77.4782 44.8168 77.5803 44.6747 77.6514 44.506C77.7313 44.3372 77.7713 44.1418 77.7713 43.9198H79.3699C79.3699 44.3639 79.29 44.7502 79.1301 45.0788C78.9791 45.4075 78.7616 45.6783 78.4773 45.8915C78.202 46.1046 77.8778 46.2645 77.5048 46.3711C77.1318 46.4777 76.7277 46.531 76.2925 46.531ZM74.6272 42.1213H77.678C77.678 41.8282 77.6425 41.5795 77.5714 41.3753C77.5093 41.171 77.416 41.0022 77.2917 40.869C77.1762 40.7358 77.0341 40.6425 76.8654 40.5892C76.6966 40.5271 76.5057 40.496 76.2925 40.496C75.9461 40.496 75.653 40.5537 75.4132 40.6692C75.1823 40.7846 75.0047 40.9623 74.8803 41.2021C74.756 41.4419 74.6716 41.7483 74.6272 42.1213ZM87.5863 46.531C86.6538 46.531 85.8544 46.3667 85.1883 46.038C84.5311 45.7094 84.0248 45.1987 83.6696 44.506C83.3232 43.8043 83.15 42.9029 83.15 41.8016C83.15 40.194 83.5408 39.0039 84.3224 38.2312C85.1039 37.4585 86.1919 37.0722 87.5863 37.0722C88.3412 37.0722 89.0207 37.201 89.6246 37.4585C90.2374 37.7161 90.7215 38.1069 91.0767 38.6309C91.4409 39.146 91.6229 39.8032 91.6229 40.6026H89.8511C89.8511 40.1585 89.7534 39.7855 89.558 39.4835C89.3715 39.1727 89.1095 38.9373 88.772 38.7774C88.4345 38.6176 88.0481 38.5376 87.613 38.5376C87.009 38.5376 86.5072 38.6575 86.1075 38.8973C85.7079 39.1282 85.4103 39.4746 85.215 39.9365C85.0284 40.3983 84.9352 40.9712 84.9352 41.655V41.9481C84.9352 42.6409 85.0284 43.2182 85.215 43.68C85.4103 44.1418 85.7034 44.4882 86.0942 44.7191C86.4939 44.9501 87.0001 45.0655 87.613 45.0655C88.0748 45.0655 88.4789 44.99 88.8253 44.839C89.1717 44.6792 89.4381 44.4483 89.6246 44.1463C89.82 43.8354 89.9177 43.458 89.9177 43.0139H91.6229C91.6229 43.8132 91.4453 44.4749 91.0901 44.9989C90.7348 45.514 90.2508 45.9004 89.6379 46.1579C89.034 46.4066 88.3501 46.531 87.5863 46.531ZM93.0178 46.3711V36.7391H94.6431V46.3711H93.0178ZM99.4918 46.531C98.728 46.531 98.0885 46.4022 97.5734 46.1446C97.0583 45.8782 96.6719 45.4741 96.4144 44.9323C96.1568 44.3905 96.028 43.7022 96.028 42.8673C96.028 42.0236 96.1568 41.3353 96.4144 40.8024C96.6719 40.2606 97.0583 39.861 97.5734 39.6034C98.0885 39.337 98.728 39.2037 99.4918 39.2037C100.264 39.2037 100.904 39.337 101.41 39.6034C101.925 39.861 102.312 40.2606 102.569 40.8024C102.827 41.3353 102.956 42.0236 102.956 42.8673C102.956 43.7022 102.827 44.3905 102.569 44.9323C102.312 45.4741 101.925 45.8782 101.41 46.1446C100.904 46.4022 100.264 46.531 99.4918 46.531ZM99.4918 45.1987C99.9181 45.1987 100.26 45.1188 100.518 44.9589C100.784 44.7902 100.975 44.5415 101.09 44.2129C101.215 43.8754 101.277 43.458 101.277 42.9606V42.7741C101.277 42.2767 101.215 41.8637 101.09 41.5351C100.975 41.1976 100.784 40.9489 100.518 40.7891C100.26 40.6203 99.9181 40.536 99.4918 40.536C99.0655 40.536 98.7191 40.6203 98.4527 40.7891C98.1951 40.9489 98.0041 41.1976 97.8798 41.5351C97.7643 41.8637 97.7066 42.2767 97.7066 42.7741V42.9606C97.7066 43.458 97.7643 43.8754 97.8798 44.2129C98.0041 44.5415 98.1951 44.7902 98.4527 44.9589C98.7191 45.1188 99.0655 45.1987 99.4918 45.1987ZM104.337 46.3711V39.3636H105.695L105.829 40.2962H105.922C106.082 40.083 106.268 39.8965 106.481 39.7366C106.703 39.5679 106.952 39.4391 107.227 39.3503C107.512 39.2526 107.822 39.2037 108.16 39.2037C108.604 39.2037 108.995 39.2837 109.332 39.4435C109.679 39.6034 109.95 39.861 110.145 40.2162C110.34 40.5715 110.438 41.0466 110.438 41.6417V46.3711H108.799V41.9348C108.799 41.6861 108.768 41.4818 108.706 41.322C108.653 41.1532 108.569 41.02 108.453 40.9223C108.346 40.8157 108.213 40.7402 108.053 40.6958C107.894 40.6514 107.716 40.6292 107.521 40.6292C107.227 40.6292 106.961 40.7003 106.721 40.8424C106.49 40.9845 106.304 41.1799 106.162 41.4285C106.028 41.6772 105.962 41.9659 105.962 42.2945V46.3711H104.337ZM112.116 38.2845V36.7391H113.742V38.2845H112.116ZM112.116 46.3711V39.3636H113.742V46.3711H112.116ZM115.473 46.3711V39.3636H116.832L116.965 40.2962H117.058C117.218 40.083 117.405 39.8965 117.618 39.7366C117.84 39.5679 118.089 39.4391 118.364 39.3503C118.648 39.2526 118.959 39.2037 119.297 39.2037C119.741 39.2037 120.131 39.2837 120.469 39.4435C120.815 39.6034 121.086 39.861 121.282 40.2162C121.477 40.5715 121.575 41.0466 121.575 41.6417V46.3711H119.936V41.9348C119.936 41.6861 119.905 41.4818 119.843 41.322C119.789 41.1532 119.705 41.02 119.59 40.9223C119.483 40.8157 119.35 40.7402 119.19 40.6958C119.03 40.6514 118.852 40.6292 118.657 40.6292C118.364 40.6292 118.098 40.7003 117.858 40.8424C117.627 40.9845 117.44 41.1799 117.298 41.4285C117.165 41.6772 117.098 41.9659 117.098 42.2945V46.3711H115.473ZM124.412 48.7957C124.101 48.7957 123.808 48.7336 123.533 48.6092C123.257 48.4849 123.035 48.2984 122.867 48.0497C122.698 47.8099 122.614 47.5124 122.614 47.1571C122.614 46.7663 122.725 46.4599 122.947 46.2379C123.178 46.007 123.431 45.8338 123.706 45.7183C123.502 45.6117 123.333 45.4696 123.2 45.292C123.075 45.1144 123.013 44.9012 123.013 44.6525C123.013 44.315 123.138 44.0486 123.386 43.8532C123.635 43.6489 123.919 43.5157 124.239 43.4535C123.91 43.2493 123.657 42.9872 123.479 42.6675C123.311 42.3478 123.226 41.9836 123.226 41.5751C123.226 41.0866 123.342 40.6692 123.573 40.3228C123.813 39.9675 124.159 39.6922 124.612 39.4968C125.065 39.3014 125.611 39.2037 126.251 39.2037C126.508 39.2037 126.757 39.2215 126.997 39.257C127.236 39.2926 127.454 39.3458 127.649 39.4169C127.96 39.2304 128.173 39.0217 128.289 38.7907C128.404 38.5509 128.466 38.3556 128.475 38.2046H130.061C130.061 38.5154 129.999 38.7907 129.874 39.0305C129.759 39.2703 129.594 39.4702 129.381 39.63C129.168 39.781 128.911 39.8921 128.609 39.9631C128.831 40.1585 128.999 40.3939 129.115 40.6692C129.23 40.9445 129.288 41.2465 129.288 41.5751C129.288 42.0636 129.173 42.4854 128.942 42.8407C128.72 43.196 128.387 43.4713 127.942 43.6667C127.507 43.8621 126.97 43.9598 126.33 43.9598H125.251C125.065 43.9598 124.918 43.9997 124.812 44.0797C124.714 44.1596 124.665 44.2706 124.665 44.4127C124.665 44.5282 124.71 44.6303 124.798 44.7191C124.896 44.808 125.029 44.8524 125.198 44.8524H128.262C128.786 44.8524 129.217 45.0255 129.554 45.3719C129.901 45.7094 130.074 46.1446 130.074 46.6775C130.074 47.0772 129.967 47.4369 129.754 47.7566C129.55 48.0763 129.261 48.3295 128.888 48.516C128.515 48.7025 128.08 48.7957 127.583 48.7957H124.412ZM124.998 47.6234H127.569C127.738 47.6234 127.885 47.5923 128.009 47.5301C128.142 47.4768 128.244 47.3969 128.315 47.2903C128.395 47.1837 128.435 47.0638 128.435 46.9306C128.435 46.6997 128.36 46.5265 128.209 46.4111C128.067 46.2956 127.889 46.2379 127.676 46.2379H124.998C124.785 46.2379 124.607 46.3 124.465 46.4244C124.323 46.5576 124.252 46.7264 124.252 46.9306C124.252 47.1349 124.319 47.2992 124.452 47.4235C124.594 47.5568 124.776 47.6234 124.998 47.6234ZM126.264 42.8141C126.735 42.8141 127.085 42.7075 127.316 42.4943C127.556 42.2723 127.676 41.9659 127.676 41.5751C127.676 41.1843 127.556 40.8823 127.316 40.6692C127.085 40.456 126.735 40.3494 126.264 40.3494C125.793 40.3494 125.438 40.456 125.198 40.6692C124.967 40.8823 124.852 41.1843 124.852 41.5751C124.852 41.8327 124.901 42.0547 124.998 42.2412C125.105 42.4277 125.26 42.5698 125.465 42.6675C125.678 42.7652 125.944 42.8141 126.264 42.8141Z" fill="white"/>
<g clip-path="url(#clip0_352_418)">
<rect x="154.537" y="23.8926" width="174.448" height="36.957" rx="18.4785" fill="#2B2D31"/>
<circle cx="173.016" cy="42.3705" r="0.769937" fill="#5865F2"/>
<circle cx="173.015" cy="42.3708" r="12.319" fill="#5865F2"/>
<path d="M171.484 37.6202C170.714 37.1673 169.743 37.7224 169.743 38.6156V46.1262C169.743 47.0194 170.714 47.5745 171.484 47.1217L177.868 43.3664C178.627 42.9198 178.627 41.822 177.868 41.3755L171.484 37.6202Z" fill="white"/>
<rect opacity="0.66" x="194.574" y="41.6006" width="1.53987" height="1.53987" rx="0.769937" fill="white"/>
<rect opacity="0.66" x="199.193" y="39.291" width="1.53987" height="6.1595" rx="0.769937" fill="white"/>
<rect opacity="0.66" x="203.813" y="36.9814" width="1.53987" height="10.7791" rx="0.769937" fill="white"/>
<rect opacity="0.66" x="208.433" y="40.8311" width="1.53987" height="3.07975" rx="0.769937" fill="white"/>
<rect opacity="0.66" x="213.053" y="36.2109" width="1.53987" height="12.319" rx="0.769937" fill="white"/>
<rect opacity="0.66" x="217.672" y="36.9814" width="1.53987" height="10.7791" rx="0.769937" fill="white"/>
<rect opacity="0.66" x="222.292" y="38.5215" width="1.53987" height="7.69937" rx="0.769937" fill="white"/>
<rect opacity="0.66" x="226.911" y="38.5215" width="1.53987" height="7.69937" rx="0.769937" fill="white"/>
<rect opacity="0.66" x="231.531" y="38.5215" width="1.53987" height="7.69937" rx="0.769937" fill="white"/>
<rect opacity="0.66" x="236.15" y="36.9814" width="1.53987" height="10.7791" rx="0.769937" fill="white"/>
<rect opacity="0.66" x="240.771" y="38.5215" width="1.53987" height="7.69937" rx="0.769937" fill="white"/>
<rect opacity="0.66" x="245.39" y="36.2109" width="1.53987" height="12.319" rx="0.769937" fill="white"/>
<rect opacity="0.66" x="250.01" y="38.5215" width="1.53987" height="7.69937" rx="0.769937" fill="white"/>
<rect opacity="0.66" x="254.629" y="40.8311" width="1.53987" height="3.07975" rx="0.769937" fill="white"/>
<rect opacity="0.66" x="259.249" y="41.6006" width="1.53987" height="1.53987" rx="0.769937" fill="white"/>
<g opacity="0.66">
<path d="M275.665 42.0122C275.665 42.6374 275.618 43.1943 275.525 43.6829C275.431 44.1716 275.28 44.5884 275.072 44.9333C274.871 45.2711 274.605 45.5298 274.274 45.7094C273.951 45.8891 273.559 45.9789 273.099 45.9789C272.525 45.9789 272.047 45.8208 271.666 45.5046C271.292 45.1884 271.012 44.7357 270.825 44.1464C270.645 43.55 270.556 42.8386 270.556 42.0122C270.556 41.1786 270.638 40.4672 270.803 39.8779C270.976 39.2886 271.249 38.8395 271.623 38.5305C271.996 38.2143 272.489 38.0562 273.099 38.0562C273.674 38.0562 274.152 38.2143 274.533 38.5305C274.914 38.8395 275.198 39.2886 275.385 39.8779C275.571 40.4672 275.665 41.1786 275.665 42.0122ZM271.504 42.0122C271.504 42.7164 271.554 43.3021 271.655 43.7692C271.763 44.2363 271.932 44.5884 272.162 44.8255C272.399 45.0555 272.711 45.1705 273.099 45.1705C273.487 45.1705 273.796 45.0555 274.026 44.8255C274.264 44.5956 274.436 44.247 274.544 43.7799C274.652 43.3057 274.705 42.7164 274.705 42.0122C274.705 41.3079 274.652 40.7259 274.544 40.2659C274.436 39.7989 274.264 39.4503 274.026 39.2204C273.796 38.9832 273.487 38.8647 273.099 38.8647C272.711 38.8647 272.399 38.9832 272.162 39.2204C271.932 39.4503 271.763 39.7989 271.655 40.2659C271.554 40.7259 271.504 41.3079 271.504 42.0122ZM276.972 45.289C276.972 45.0231 277.037 44.8363 277.166 44.7285C277.295 44.6207 277.45 44.5668 277.629 44.5668C277.816 44.5668 277.974 44.6207 278.104 44.7285C278.24 44.8363 278.309 45.0231 278.309 45.289C278.309 45.5477 278.24 45.7346 278.104 45.8495C277.974 45.9645 277.816 46.022 277.629 46.022C277.45 46.022 277.295 45.9645 277.166 45.8495C277.037 45.7346 276.972 45.5477 276.972 45.289ZM276.972 40.6756C276.972 40.4025 277.037 40.2121 277.166 40.1043C277.295 39.9965 277.45 39.9426 277.629 39.9426C277.816 39.9426 277.974 39.9965 278.104 40.1043C278.24 40.2121 278.309 40.4025 278.309 40.6756C278.309 40.9343 278.24 41.1211 278.104 41.2361C277.974 41.351 277.816 41.4085 277.629 41.4085C277.45 41.4085 277.295 41.351 277.166 41.2361C277.037 41.1211 276.972 40.9343 276.972 40.6756ZM284.718 42.0122C284.718 42.6374 284.671 43.1943 284.577 43.6829C284.484 44.1716 284.333 44.5884 284.125 44.9333C283.924 45.2711 283.658 45.5298 283.327 45.7094C283.004 45.8891 282.612 45.9789 282.152 45.9789C281.577 45.9789 281.099 45.8208 280.719 45.5046C280.345 45.1884 280.065 44.7357 279.878 44.1464C279.698 43.55 279.608 42.8386 279.608 42.0122C279.608 41.1786 279.691 40.4672 279.856 39.8779C280.029 39.2886 280.302 38.8395 280.675 38.5305C281.049 38.2143 281.541 38.0562 282.152 38.0562C282.727 38.0562 283.205 38.2143 283.586 38.5305C283.967 38.8395 284.251 39.2886 284.437 39.8779C284.624 40.4672 284.718 41.1786 284.718 42.0122ZM280.557 42.0122C280.557 42.7164 280.607 43.3021 280.708 43.7692C280.816 44.2363 280.984 44.5884 281.214 44.8255C281.452 45.0555 281.764 45.1705 282.152 45.1705C282.54 45.1705 282.849 45.0555 283.079 44.8255C283.316 44.5956 283.489 44.247 283.597 43.7799C283.704 43.3057 283.758 42.7164 283.758 42.0122C283.758 41.3079 283.704 40.7259 283.597 40.2659C283.489 39.7989 283.316 39.4503 283.079 39.2204C282.849 38.9832 282.54 38.8647 282.152 38.8647C281.764 38.8647 281.452 38.9832 281.214 39.2204C280.984 39.4503 280.816 39.7989 280.708 40.2659C280.607 40.7259 280.557 41.3079 280.557 42.0122ZM288.213 41.1498C288.737 41.1498 289.194 41.2397 289.582 41.4193C289.97 41.599 290.268 41.8577 290.477 42.1954C290.692 42.526 290.8 42.932 290.8 43.4135C290.8 43.9452 290.685 44.4051 290.455 44.7932C290.225 45.174 289.894 45.4687 289.463 45.6771C289.039 45.8783 288.525 45.9789 287.922 45.9789C287.527 45.9789 287.153 45.943 286.801 45.8711C286.456 45.7992 286.165 45.695 285.928 45.5585V44.6638C286.186 44.8219 286.499 44.9477 286.866 45.0411C287.239 45.1273 287.595 45.1705 287.933 45.1705C288.314 45.1705 288.644 45.113 288.924 44.998C289.212 44.8758 289.435 44.6926 289.593 44.4482C289.751 44.1967 289.83 43.8841 289.83 43.5105C289.83 43.0074 289.675 42.623 289.366 42.3571C289.057 42.084 288.569 41.9475 287.9 41.9475C287.699 41.9475 287.469 41.9655 287.21 42.0014C286.952 42.0373 286.743 42.0732 286.585 42.1092L286.111 41.8074L286.402 38.1748H290.261V39.0371H287.21L287.027 41.2684C287.149 41.2468 287.315 41.2217 287.523 41.193C287.731 41.1642 287.961 41.1498 288.213 41.1498Z" fill="#FF0000" style="mix-blend-mode:saturation"/>
<path d="M275.665 42.0122C275.665 42.6374 275.618 43.1943 275.525 43.6829C275.431 44.1716 275.28 44.5884 275.072 44.9333C274.871 45.2711 274.605 45.5298 274.274 45.7094C273.951 45.8891 273.559 45.9789 273.099 45.9789C272.525 45.9789 272.047 45.8208 271.666 45.5046C271.292 45.1884 271.012 44.7357 270.825 44.1464C270.645 43.55 270.556 42.8386 270.556 42.0122C270.556 41.1786 270.638 40.4672 270.803 39.8779C270.976 39.2886 271.249 38.8395 271.623 38.5305C271.996 38.2143 272.489 38.0562 273.099 38.0562C273.674 38.0562 274.152 38.2143 274.533 38.5305C274.914 38.8395 275.198 39.2886 275.385 39.8779C275.571 40.4672 275.665 41.1786 275.665 42.0122ZM271.504 42.0122C271.504 42.7164 271.554 43.3021 271.655 43.7692C271.763 44.2363 271.932 44.5884 272.162 44.8255C272.399 45.0555 272.711 45.1705 273.099 45.1705C273.487 45.1705 273.796 45.0555 274.026 44.8255C274.264 44.5956 274.436 44.247 274.544 43.7799C274.652 43.3057 274.705 42.7164 274.705 42.0122C274.705 41.3079 274.652 40.7259 274.544 40.2659C274.436 39.7989 274.264 39.4503 274.026 39.2204C273.796 38.9832 273.487 38.8647 273.099 38.8647C272.711 38.8647 272.399 38.9832 272.162 39.2204C271.932 39.4503 271.763 39.7989 271.655 40.2659C271.554 40.7259 271.504 41.3079 271.504 42.0122ZM276.972 45.289C276.972 45.0231 277.037 44.8363 277.166 44.7285C277.295 44.6207 277.45 44.5668 277.629 44.5668C277.816 44.5668 277.974 44.6207 278.104 44.7285C278.24 44.8363 278.309 45.0231 278.309 45.289C278.309 45.5477 278.24 45.7346 278.104 45.8495C277.974 45.9645 277.816 46.022 277.629 46.022C277.45 46.022 277.295 45.9645 277.166 45.8495C277.037 45.7346 276.972 45.5477 276.972 45.289ZM276.972 40.6756C276.972 40.4025 277.037 40.2121 277.166 40.1043C277.295 39.9965 277.45 39.9426 277.629 39.9426C277.816 39.9426 277.974 39.9965 278.104 40.1043C278.24 40.2121 278.309 40.4025 278.309 40.6756C278.309 40.9343 278.24 41.1211 278.104 41.2361C277.974 41.351 277.816 41.4085 277.629 41.4085C277.45 41.4085 277.295 41.351 277.166 41.2361C277.037 41.1211 276.972 40.9343 276.972 40.6756ZM284.718 42.0122C284.718 42.6374 284.671 43.1943 284.577 43.6829C284.484 44.1716 284.333 44.5884 284.125 44.9333C283.924 45.2711 283.658 45.5298 283.327 45.7094C283.004 45.8891 282.612 45.9789 282.152 45.9789C281.577 45.9789 281.099 45.8208 280.719 45.5046C280.345 45.1884 280.065 44.7357 279.878 44.1464C279.698 43.55 279.608 42.8386 279.608 42.0122C279.608 41.1786 279.691 40.4672 279.856 39.8779C280.029 39.2886 280.302 38.8395 280.675 38.5305C281.049 38.2143 281.541 38.0562 282.152 38.0562C282.727 38.0562 283.205 38.2143 283.586 38.5305C283.967 38.8395 284.251 39.2886 284.437 39.8779C284.624 40.4672 284.718 41.1786 284.718 42.0122ZM280.557 42.0122C280.557 42.7164 280.607 43.3021 280.708 43.7692C280.816 44.2363 280.984 44.5884 281.214 44.8255C281.452 45.0555 281.764 45.1705 282.152 45.1705C282.54 45.1705 282.849 45.0555 283.079 44.8255C283.316 44.5956 283.489 44.247 283.597 43.7799C283.704 43.3057 283.758 42.7164 283.758 42.0122C283.758 41.3079 283.704 40.7259 283.597 40.2659C283.489 39.7989 283.316 39.4503 283.079 39.2204C282.849 38.9832 282.54 38.8647 282.152 38.8647C281.764 38.8647 281.452 38.9832 281.214 39.2204C280.984 39.4503 280.816 39.7989 280.708 40.2659C280.607 40.7259 280.557 41.3079 280.557 42.0122ZM288.213 41.1498C288.737 41.1498 289.194 41.2397 289.582 41.4193C289.97 41.599 290.268 41.8577 290.477 42.1954C290.692 42.526 290.8 42.932 290.8 43.4135C290.8 43.9452 290.685 44.4051 290.455 44.7932C290.225 45.174 289.894 45.4687 289.463 45.6771C289.039 45.8783 288.525 45.9789 287.922 45.9789C287.527 45.9789 287.153 45.943 286.801 45.8711C286.456 45.7992 286.165 45.695 285.928 45.5585V44.6638C286.186 44.8219 286.499 44.9477 286.866 45.0411C287.239 45.1273 287.595 45.1705 287.933 45.1705C288.314 45.1705 288.644 45.113 288.924 44.998C289.212 44.8758 289.435 44.6926 289.593 44.4482C289.751 44.1967 289.83 43.8841 289.83 43.5105C289.83 43.0074 289.675 42.623 289.366 42.3571C289.057 42.084 288.569 41.9475 287.9 41.9475C287.699 41.9475 287.469 41.9655 287.21 42.0014C286.952 42.0373 286.743 42.0732 286.585 42.1092L286.111 41.8074L286.402 38.1748H290.261V39.0371H287.21L287.027 41.2684C287.149 41.2468 287.315 41.2217 287.523 41.193C287.731 41.1642 287.961 41.1498 288.213 41.1498Z" fill="white" style="mix-blend-mode:difference"/>
<path d="M275.665 42.0122C275.665 42.6374 275.618 43.1943 275.525 43.6829C275.431 44.1716 275.28 44.5884 275.072 44.9333C274.871 45.2711 274.605 45.5298 274.274 45.7094C273.951 45.8891 273.559 45.9789 273.099 45.9789C272.525 45.9789 272.047 45.8208 271.666 45.5046C271.292 45.1884 271.012 44.7357 270.825 44.1464C270.645 43.55 270.556 42.8386 270.556 42.0122C270.556 41.1786 270.638 40.4672 270.803 39.8779C270.976 39.2886 271.249 38.8395 271.623 38.5305C271.996 38.2143 272.489 38.0562 273.099 38.0562C273.674 38.0562 274.152 38.2143 274.533 38.5305C274.914 38.8395 275.198 39.2886 275.385 39.8779C275.571 40.4672 275.665 41.1786 275.665 42.0122ZM271.504 42.0122C271.504 42.7164 271.554 43.3021 271.655 43.7692C271.763 44.2363 271.932 44.5884 272.162 44.8255C272.399 45.0555 272.711 45.1705 273.099 45.1705C273.487 45.1705 273.796 45.0555 274.026 44.8255C274.264 44.5956 274.436 44.247 274.544 43.7799C274.652 43.3057 274.705 42.7164 274.705 42.0122C274.705 41.3079 274.652 40.7259 274.544 40.2659C274.436 39.7989 274.264 39.4503 274.026 39.2204C273.796 38.9832 273.487 38.8647 273.099 38.8647C272.711 38.8647 272.399 38.9832 272.162 39.2204C271.932 39.4503 271.763 39.7989 271.655 40.2659C271.554 40.7259 271.504 41.3079 271.504 42.0122ZM276.972 45.289C276.972 45.0231 277.037 44.8363 277.166 44.7285C277.295 44.6207 277.45 44.5668 277.629 44.5668C277.816 44.5668 277.974 44.6207 278.104 44.7285C278.24 44.8363 278.309 45.0231 278.309 45.289C278.309 45.5477 278.24 45.7346 278.104 45.8495C277.974 45.9645 277.816 46.022 277.629 46.022C277.45 46.022 277.295 45.9645 277.166 45.8495C277.037 45.7346 276.972 45.5477 276.972 45.289ZM276.972 40.6756C276.972 40.4025 277.037 40.2121 277.166 40.1043C277.295 39.9965 277.45 39.9426 277.629 39.9426C277.816 39.9426 277.974 39.9965 278.104 40.1043C278.24 40.2121 278.309 40.4025 278.309 40.6756C278.309 40.9343 278.24 41.1211 278.104 41.2361C277.974 41.351 277.816 41.4085 277.629 41.4085C277.45 41.4085 277.295 41.351 277.166 41.2361C277.037 41.1211 276.972 40.9343 276.972 40.6756ZM284.718 42.0122C284.718 42.6374 284.671 43.1943 284.577 43.6829C284.484 44.1716 284.333 44.5884 284.125 44.9333C283.924 45.2711 283.658 45.5298 283.327 45.7094C283.004 45.8891 282.612 45.9789 282.152 45.9789C281.577 45.9789 281.099 45.8208 280.719 45.5046C280.345 45.1884 280.065 44.7357 279.878 44.1464C279.698 43.55 279.608 42.8386 279.608 42.0122C279.608 41.1786 279.691 40.4672 279.856 39.8779C280.029 39.2886 280.302 38.8395 280.675 38.5305C281.049 38.2143 281.541 38.0562 282.152 38.0562C282.727 38.0562 283.205 38.2143 283.586 38.5305C283.967 38.8395 284.251 39.2886 284.437 39.8779C284.624 40.4672 284.718 41.1786 284.718 42.0122ZM280.557 42.0122C280.557 42.7164 280.607 43.3021 280.708 43.7692C280.816 44.2363 280.984 44.5884 281.214 44.8255C281.452 45.0555 281.764 45.1705 282.152 45.1705C282.54 45.1705 282.849 45.0555 283.079 44.8255C283.316 44.5956 283.489 44.247 283.597 43.7799C283.704 43.3057 283.758 42.7164 283.758 42.0122C283.758 41.3079 283.704 40.7259 283.597 40.2659C283.489 39.7989 283.316 39.4503 283.079 39.2204C282.849 38.9832 282.54 38.8647 282.152 38.8647C281.764 38.8647 281.452 38.9832 281.214 39.2204C280.984 39.4503 280.816 39.7989 280.708 40.2659C280.607 40.7259 280.557 41.3079 280.557 42.0122ZM288.213 41.1498C288.737 41.1498 289.194 41.2397 289.582 41.4193C289.97 41.599 290.268 41.8577 290.477 42.1954C290.692 42.526 290.8 42.932 290.8 43.4135C290.8 43.9452 290.685 44.4051 290.455 44.7932C290.225 45.174 289.894 45.4687 289.463 45.6771C289.039 45.8783 288.525 45.9789 287.922 45.9789C287.527 45.9789 287.153 45.943 286.801 45.8711C286.456 45.7992 286.165 45.695 285.928 45.5585V44.6638C286.186 44.8219 286.499 44.9477 286.866 45.0411C287.239 45.1273 287.595 45.1705 287.933 45.1705C288.314 45.1705 288.644 45.113 288.924 44.998C289.212 44.8758 289.435 44.6926 289.593 44.4482C289.751 44.1967 289.83 43.8841 289.83 43.5105C289.83 43.0074 289.675 42.623 289.366 42.3571C289.057 42.084 288.569 41.9475 287.9 41.9475C287.699 41.9475 287.469 41.9655 287.21 42.0014C286.952 42.0373 286.743 42.0732 286.585 42.1092L286.111 41.8074L286.402 38.1748H290.261V39.0371H287.21L287.027 41.2684C287.149 41.2468 287.315 41.2217 287.523 41.193C287.731 41.1642 287.961 41.1498 288.213 41.1498Z" fill="white" style="mix-blend-mode:saturation"/>
<path d="M275.665 42.0122C275.665 42.6374 275.618 43.1943 275.525 43.6829C275.431 44.1716 275.28 44.5884 275.072 44.9333C274.871 45.2711 274.605 45.5298 274.274 45.7094C273.951 45.8891 273.559 45.9789 273.099 45.9789C272.525 45.9789 272.047 45.8208 271.666 45.5046C271.292 45.1884 271.012 44.7357 270.825 44.1464C270.645 43.55 270.556 42.8386 270.556 42.0122C270.556 41.1786 270.638 40.4672 270.803 39.8779C270.976 39.2886 271.249 38.8395 271.623 38.5305C271.996 38.2143 272.489 38.0562 273.099 38.0562C273.674 38.0562 274.152 38.2143 274.533 38.5305C274.914 38.8395 275.198 39.2886 275.385 39.8779C275.571 40.4672 275.665 41.1786 275.665 42.0122ZM271.504 42.0122C271.504 42.7164 271.554 43.3021 271.655 43.7692C271.763 44.2363 271.932 44.5884 272.162 44.8255C272.399 45.0555 272.711 45.1705 273.099 45.1705C273.487 45.1705 273.796 45.0555 274.026 44.8255C274.264 44.5956 274.436 44.247 274.544 43.7799C274.652 43.3057 274.705 42.7164 274.705 42.0122C274.705 41.3079 274.652 40.7259 274.544 40.2659C274.436 39.7989 274.264 39.4503 274.026 39.2204C273.796 38.9832 273.487 38.8647 273.099 38.8647C272.711 38.8647 272.399 38.9832 272.162 39.2204C271.932 39.4503 271.763 39.7989 271.655 40.2659C271.554 40.7259 271.504 41.3079 271.504 42.0122ZM276.972 45.289C276.972 45.0231 277.037 44.8363 277.166 44.7285C277.295 44.6207 277.45 44.5668 277.629 44.5668C277.816 44.5668 277.974 44.6207 278.104 44.7285C278.24 44.8363 278.309 45.0231 278.309 45.289C278.309 45.5477 278.24 45.7346 278.104 45.8495C277.974 45.9645 277.816 46.022 277.629 46.022C277.45 46.022 277.295 45.9645 277.166 45.8495C277.037 45.7346 276.972 45.5477 276.972 45.289ZM276.972 40.6756C276.972 40.4025 277.037 40.2121 277.166 40.1043C277.295 39.9965 277.45 39.9426 277.629 39.9426C277.816 39.9426 277.974 39.9965 278.104 40.1043C278.24 40.2121 278.309 40.4025 278.309 40.6756C278.309 40.9343 278.24 41.1211 278.104 41.2361C277.974 41.351 277.816 41.4085 277.629 41.4085C277.45 41.4085 277.295 41.351 277.166 41.2361C277.037 41.1211 276.972 40.9343 276.972 40.6756ZM284.718 42.0122C284.718 42.6374 284.671 43.1943 284.577 43.6829C284.484 44.1716 284.333 44.5884 284.125 44.9333C283.924 45.2711 283.658 45.5298 283.327 45.7094C283.004 45.8891 282.612 45.9789 282.152 45.9789C281.577 45.9789 281.099 45.8208 280.719 45.5046C280.345 45.1884 280.065 44.7357 279.878 44.1464C279.698 43.55 279.608 42.8386 279.608 42.0122C279.608 41.1786 279.691 40.4672 279.856 39.8779C280.029 39.2886 280.302 38.8395 280.675 38.5305C281.049 38.2143 281.541 38.0562 282.152 38.0562C282.727 38.0562 283.205 38.2143 283.586 38.5305C283.967 38.8395 284.251 39.2886 284.437 39.8779C284.624 40.4672 284.718 41.1786 284.718 42.0122ZM280.557 42.0122C280.557 42.7164 280.607 43.3021 280.708 43.7692C280.816 44.2363 280.984 44.5884 281.214 44.8255C281.452 45.0555 281.764 45.1705 282.152 45.1705C282.54 45.1705 282.849 45.0555 283.079 44.8255C283.316 44.5956 283.489 44.247 283.597 43.7799C283.704 43.3057 283.758 42.7164 283.758 42.0122C283.758 41.3079 283.704 40.7259 283.597 40.2659C283.489 39.7989 283.316 39.4503 283.079 39.2204C282.849 38.9832 282.54 38.8647 282.152 38.8647C281.764 38.8647 281.452 38.9832 281.214 39.2204C280.984 39.4503 280.816 39.7989 280.708 40.2659C280.607 40.7259 280.557 41.3079 280.557 42.0122ZM288.213 41.1498C288.737 41.1498 289.194 41.2397 289.582 41.4193C289.97 41.599 290.268 41.8577 290.477 42.1954C290.692 42.526 290.8 42.932 290.8 43.4135C290.8 43.9452 290.685 44.4051 290.455 44.7932C290.225 45.174 289.894 45.4687 289.463 45.6771C289.039 45.8783 288.525 45.9789 287.922 45.9789C287.527 45.9789 287.153 45.943 286.801 45.8711C286.456 45.7992 286.165 45.695 285.928 45.5585V44.6638C286.186 44.8219 286.499 44.9477 286.866 45.0411C287.239 45.1273 287.595 45.1705 287.933 45.1705C288.314 45.1705 288.644 45.113 288.924 44.998C289.212 44.8758 289.435 44.6926 289.593 44.4482C289.751 44.1967 289.83 43.8841 289.83 43.5105C289.83 43.0074 289.675 42.623 289.366 42.3571C289.057 42.084 288.569 41.9475 287.9 41.9475C287.699 41.9475 287.469 41.9655 287.21 42.0014C286.952 42.0373 286.743 42.0732 286.585 42.1092L286.111 41.8074L286.402 38.1748H290.261V39.0371H287.21L287.027 41.2684C287.149 41.2468 287.315 41.2217 287.523 41.193C287.731 41.1642 287.961 41.1498 288.213 41.1498Z" fill="white" style="mix-blend-mode:overlay"/>
<path d="M275.665 42.0122C275.665 42.6374 275.618 43.1943 275.525 43.6829C275.431 44.1716 275.28 44.5884 275.072 44.9333C274.871 45.2711 274.605 45.5298 274.274 45.7094C273.951 45.8891 273.559 45.9789 273.099 45.9789C272.525 45.9789 272.047 45.8208 271.666 45.5046C271.292 45.1884 271.012 44.7357 270.825 44.1464C270.645 43.55 270.556 42.8386 270.556 42.0122C270.556 41.1786 270.638 40.4672 270.803 39.8779C270.976 39.2886 271.249 38.8395 271.623 38.5305C271.996 38.2143 272.489 38.0562 273.099 38.0562C273.674 38.0562 274.152 38.2143 274.533 38.5305C274.914 38.8395 275.198 39.2886 275.385 39.8779C275.571 40.4672 275.665 41.1786 275.665 42.0122ZM271.504 42.0122C271.504 42.7164 271.554 43.3021 271.655 43.7692C271.763 44.2363 271.932 44.5884 272.162 44.8255C272.399 45.0555 272.711 45.1705 273.099 45.1705C273.487 45.1705 273.796 45.0555 274.026 44.8255C274.264 44.5956 274.436 44.247 274.544 43.7799C274.652 43.3057 274.705 42.7164 274.705 42.0122C274.705 41.3079 274.652 40.7259 274.544 40.2659C274.436 39.7989 274.264 39.4503 274.026 39.2204C273.796 38.9832 273.487 38.8647 273.099 38.8647C272.711 38.8647 272.399 38.9832 272.162 39.2204C271.932 39.4503 271.763 39.7989 271.655 40.2659C271.554 40.7259 271.504 41.3079 271.504 42.0122ZM276.972 45.289C276.972 45.0231 277.037 44.8363 277.166 44.7285C277.295 44.6207 277.45 44.5668 277.629 44.5668C277.816 44.5668 277.974 44.6207 278.104 44.7285C278.24 44.8363 278.309 45.0231 278.309 45.289C278.309 45.5477 278.24 45.7346 278.104 45.8495C277.974 45.9645 277.816 46.022 277.629 46.022C277.45 46.022 277.295 45.9645 277.166 45.8495C277.037 45.7346 276.972 45.5477 276.972 45.289ZM276.972 40.6756C276.972 40.4025 277.037 40.2121 277.166 40.1043C277.295 39.9965 277.45 39.9426 277.629 39.9426C277.816 39.9426 277.974 39.9965 278.104 40.1043C278.24 40.2121 278.309 40.4025 278.309 40.6756C278.309 40.9343 278.24 41.1211 278.104 41.2361C277.974 41.351 277.816 41.4085 277.629 41.4085C277.45 41.4085 277.295 41.351 277.166 41.2361C277.037 41.1211 276.972 40.9343 276.972 40.6756ZM284.718 42.0122C284.718 42.6374 284.671 43.1943 284.577 43.6829C284.484 44.1716 284.333 44.5884 284.125 44.9333C283.924 45.2711 283.658 45.5298 283.327 45.7094C283.004 45.8891 282.612 45.9789 282.152 45.9789C281.577 45.9789 281.099 45.8208 280.719 45.5046C280.345 45.1884 280.065 44.7357 279.878 44.1464C279.698 43.55 279.608 42.8386 279.608 42.0122C279.608 41.1786 279.691 40.4672 279.856 39.8779C280.029 39.2886 280.302 38.8395 280.675 38.5305C281.049 38.2143 281.541 38.0562 282.152 38.0562C282.727 38.0562 283.205 38.2143 283.586 38.5305C283.967 38.8395 284.251 39.2886 284.437 39.8779C284.624 40.4672 284.718 41.1786 284.718 42.0122ZM280.557 42.0122C280.557 42.7164 280.607 43.3021 280.708 43.7692C280.816 44.2363 280.984 44.5884 281.214 44.8255C281.452 45.0555 281.764 45.1705 282.152 45.1705C282.54 45.1705 282.849 45.0555 283.079 44.8255C283.316 44.5956 283.489 44.247 283.597 43.7799C283.704 43.3057 283.758 42.7164 283.758 42.0122C283.758 41.3079 283.704 40.7259 283.597 40.2659C283.489 39.7989 283.316 39.4503 283.079 39.2204C282.849 38.9832 282.54 38.8647 282.152 38.8647C281.764 38.8647 281.452 38.9832 281.214 39.2204C280.984 39.4503 280.816 39.7989 280.708 40.2659C280.607 40.7259 280.557 41.3079 280.557 42.0122ZM288.213 41.1498C288.737 41.1498 289.194 41.2397 289.582 41.4193C289.97 41.599 290.268 41.8577 290.477 42.1954C290.692 42.526 290.8 42.932 290.8 43.4135C290.8 43.9452 290.685 44.4051 290.455 44.7932C290.225 45.174 289.894 45.4687 289.463 45.6771C289.039 45.8783 288.525 45.9789 287.922 45.9789C287.527 45.9789 287.153 45.943 286.801 45.8711C286.456 45.7992 286.165 45.695 285.928 45.5585V44.6638C286.186 44.8219 286.499 44.9477 286.866 45.0411C287.239 45.1273 287.595 45.1705 287.933 45.1705C288.314 45.1705 288.644 45.113 288.924 44.998C289.212 44.8758 289.435 44.6926 289.593 44.4482C289.751 44.1967 289.83 43.8841 289.83 43.5105C289.83 43.0074 289.675 42.623 289.366 42.3571C289.057 42.084 288.569 41.9475 287.9 41.9475C287.699 41.9475 287.469 41.9655 287.21 42.0014C286.952 42.0373 286.743 42.0732 286.585 42.1092L286.111 41.8074L286.402 38.1748H290.261V39.0371H287.21L287.027 41.2684C287.149 41.2468 287.315 41.2217 287.523 41.193C287.731 41.1642 287.961 41.1498 288.213 41.1498Z" fill="black" style="mix-blend-mode:overlay"/>
<path d="M275.665 42.0122C275.665 42.6374 275.618 43.1943 275.525 43.6829C275.431 44.1716 275.28 44.5884 275.072 44.9333C274.871 45.2711 274.605 45.5298 274.274 45.7094C273.951 45.8891 273.559 45.9789 273.099 45.9789C272.525 45.9789 272.047 45.8208 271.666 45.5046C271.292 45.1884 271.012 44.7357 270.825 44.1464C270.645 43.55 270.556 42.8386 270.556 42.0122C270.556 41.1786 270.638 40.4672 270.803 39.8779C270.976 39.2886 271.249 38.8395 271.623 38.5305C271.996 38.2143 272.489 38.0562 273.099 38.0562C273.674 38.0562 274.152 38.2143 274.533 38.5305C274.914 38.8395 275.198 39.2886 275.385 39.8779C275.571 40.4672 275.665 41.1786 275.665 42.0122ZM271.504 42.0122C271.504 42.7164 271.554 43.3021 271.655 43.7692C271.763 44.2363 271.932 44.5884 272.162 44.8255C272.399 45.0555 272.711 45.1705 273.099 45.1705C273.487 45.1705 273.796 45.0555 274.026 44.8255C274.264 44.5956 274.436 44.247 274.544 43.7799C274.652 43.3057 274.705 42.7164 274.705 42.0122C274.705 41.3079 274.652 40.7259 274.544 40.2659C274.436 39.7989 274.264 39.4503 274.026 39.2204C273.796 38.9832 273.487 38.8647 273.099 38.8647C272.711 38.8647 272.399 38.9832 272.162 39.2204C271.932 39.4503 271.763 39.7989 271.655 40.2659C271.554 40.7259 271.504 41.3079 271.504 42.0122ZM276.972 45.289C276.972 45.0231 277.037 44.8363 277.166 44.7285C277.295 44.6207 277.45 44.5668 277.629 44.5668C277.816 44.5668 277.974 44.6207 278.104 44.7285C278.24 44.8363 278.309 45.0231 278.309 45.289C278.309 45.5477 278.24 45.7346 278.104 45.8495C277.974 45.9645 277.816 46.022 277.629 46.022C277.45 46.022 277.295 45.9645 277.166 45.8495C277.037 45.7346 276.972 45.5477 276.972 45.289ZM276.972 40.6756C276.972 40.4025 277.037 40.2121 277.166 40.1043C277.295 39.9965 277.45 39.9426 277.629 39.9426C277.816 39.9426 277.974 39.9965 278.104 40.1043C278.24 40.2121 278.309 40.4025 278.309 40.6756C278.309 40.9343 278.24 41.1211 278.104 41.2361C277.974 41.351 277.816 41.4085 277.629 41.4085C277.45 41.4085 277.295 41.351 277.166 41.2361C277.037 41.1211 276.972 40.9343 276.972 40.6756ZM284.718 42.0122C284.718 42.6374 284.671 43.1943 284.577 43.6829C284.484 44.1716 284.333 44.5884 284.125 44.9333C283.924 45.2711 283.658 45.5298 283.327 45.7094C283.004 45.8891 282.612 45.9789 282.152 45.9789C281.577 45.9789 281.099 45.8208 280.719 45.5046C280.345 45.1884 280.065 44.7357 279.878 44.1464C279.698 43.55 279.608 42.8386 279.608 42.0122C279.608 41.1786 279.691 40.4672 279.856 39.8779C280.029 39.2886 280.302 38.8395 280.675 38.5305C281.049 38.2143 281.541 38.0562 282.152 38.0562C282.727 38.0562 283.205 38.2143 283.586 38.5305C283.967 38.8395 284.251 39.2886 284.437 39.8779C284.624 40.4672 284.718 41.1786 284.718 42.0122ZM280.557 42.0122C280.557 42.7164 280.607 43.3021 280.708 43.7692C280.816 44.2363 280.984 44.5884 281.214 44.8255C281.452 45.0555 281.764 45.1705 282.152 45.1705C282.54 45.1705 282.849 45.0555 283.079 44.8255C283.316 44.5956 283.489 44.247 283.597 43.7799C283.704 43.3057 283.758 42.7164 283.758 42.0122C283.758 41.3079 283.704 40.7259 283.597 40.2659C283.489 39.7989 283.316 39.4503 283.079 39.2204C282.849 38.9832 282.54 38.8647 282.152 38.8647C281.764 38.8647 281.452 38.9832 281.214 39.2204C280.984 39.4503 280.816 39.7989 280.708 40.2659C280.607 40.7259 280.557 41.3079 280.557 42.0122ZM288.213 41.1498C288.737 41.1498 289.194 41.2397 289.582 41.4193C289.97 41.599 290.268 41.8577 290.477 42.1954C290.692 42.526 290.8 42.932 290.8 43.4135C290.8 43.9452 290.685 44.4051 290.455 44.7932C290.225 45.174 289.894 45.4687 289.463 45.6771C289.039 45.8783 288.525 45.9789 287.922 45.9789C287.527 45.9789 287.153 45.943 286.801 45.8711C286.456 45.7992 286.165 45.695 285.928 45.5585V44.6638C286.186 44.8219 286.499 44.9477 286.866 45.0411C287.239 45.1273 287.595 45.1705 287.933 45.1705C288.314 45.1705 288.644 45.113 288.924 44.998C289.212 44.8758 289.435 44.6926 289.593 44.4482C289.751 44.1967 289.83 43.8841 289.83 43.5105C289.83 43.0074 289.675 42.623 289.366 42.3571C289.057 42.084 288.569 41.9475 287.9 41.9475C287.699 41.9475 287.469 41.9655 287.21 42.0014C286.952 42.0373 286.743 42.0732 286.585 42.1092L286.111 41.8074L286.402 38.1748H290.261V39.0371H287.21L287.027 41.2684C287.149 41.2468 287.315 41.2217 287.523 41.193C287.731 41.1642 287.961 41.1498 288.213 41.1498Z" fill="white" style="mix-blend-mode:overlay"/>
<path d="M275.665 42.0122C275.665 42.6374 275.618 43.1943 275.525 43.6829C275.431 44.1716 275.28 44.5884 275.072 44.9333C274.871 45.2711 274.605 45.5298 274.274 45.7094C273.951 45.8891 273.559 45.9789 273.099 45.9789C272.525 45.9789 272.047 45.8208 271.666 45.5046C271.292 45.1884 271.012 44.7357 270.825 44.1464C270.645 43.55 270.556 42.8386 270.556 42.0122C270.556 41.1786 270.638 40.4672 270.803 39.8779C270.976 39.2886 271.249 38.8395 271.623 38.5305C271.996 38.2143 272.489 38.0562 273.099 38.0562C273.674 38.0562 274.152 38.2143 274.533 38.5305C274.914 38.8395 275.198 39.2886 275.385 39.8779C275.571 40.4672 275.665 41.1786 275.665 42.0122ZM271.504 42.0122C271.504 42.7164 271.554 43.3021 271.655 43.7692C271.763 44.2363 271.932 44.5884 272.162 44.8255C272.399 45.0555 272.711 45.1705 273.099 45.1705C273.487 45.1705 273.796 45.0555 274.026 44.8255C274.264 44.5956 274.436 44.247 274.544 43.7799C274.652 43.3057 274.705 42.7164 274.705 42.0122C274.705 41.3079 274.652 40.7259 274.544 40.2659C274.436 39.7989 274.264 39.4503 274.026 39.2204C273.796 38.9832 273.487 38.8647 273.099 38.8647C272.711 38.8647 272.399 38.9832 272.162 39.2204C271.932 39.4503 271.763 39.7989 271.655 40.2659C271.554 40.7259 271.504 41.3079 271.504 42.0122ZM276.972 45.289C276.972 45.0231 277.037 44.8363 277.166 44.7285C277.295 44.6207 277.45 44.5668 277.629 44.5668C277.816 44.5668 277.974 44.6207 278.104 44.7285C278.24 44.8363 278.309 45.0231 278.309 45.289C278.309 45.5477 278.24 45.7346 278.104 45.8495C277.974 45.9645 277.816 46.022 277.629 46.022C277.45 46.022 277.295 45.9645 277.166 45.8495C277.037 45.7346 276.972 45.5477 276.972 45.289ZM276.972 40.6756C276.972 40.4025 277.037 40.2121 277.166 40.1043C277.295 39.9965 277.45 39.9426 277.629 39.9426C277.816 39.9426 277.974 39.9965 278.104 40.1043C278.24 40.2121 278.309 40.4025 278.309 40.6756C278.309 40.9343 278.24 41.1211 278.104 41.2361C277.974 41.351 277.816 41.4085 277.629 41.4085C277.45 41.4085 277.295 41.351 277.166 41.2361C277.037 41.1211 276.972 40.9343 276.972 40.6756ZM284.718 42.0122C284.718 42.6374 284.671 43.1943 284.577 43.6829C284.484 44.1716 284.333 44.5884 284.125 44.9333C283.924 45.2711 283.658 45.5298 283.327 45.7094C283.004 45.8891 282.612 45.9789 282.152 45.9789C281.577 45.9789 281.099 45.8208 280.719 45.5046C280.345 45.1884 280.065 44.7357 279.878 44.1464C279.698 43.55 279.608 42.8386 279.608 42.0122C279.608 41.1786 279.691 40.4672 279.856 39.8779C280.029 39.2886 280.302 38.8395 280.675 38.5305C281.049 38.2143 281.541 38.0562 282.152 38.0562C282.727 38.0562 283.205 38.2143 283.586 38.5305C283.967 38.8395 284.251 39.2886 284.437 39.8779C284.624 40.4672 284.718 41.1786 284.718 42.0122ZM280.557 42.0122C280.557 42.7164 280.607 43.3021 280.708 43.7692C280.816 44.2363 280.984 44.5884 281.214 44.8255C281.452 45.0555 281.764 45.1705 282.152 45.1705C282.54 45.1705 282.849 45.0555 283.079 44.8255C283.316 44.5956 283.489 44.247 283.597 43.7799C283.704 43.3057 283.758 42.7164 283.758 42.0122C283.758 41.3079 283.704 40.7259 283.597 40.2659C283.489 39.7989 283.316 39.4503 283.079 39.2204C282.849 38.9832 282.54 38.8647 282.152 38.8647C281.764 38.8647 281.452 38.9832 281.214 39.2204C280.984 39.4503 280.816 39.7989 280.708 40.2659C280.607 40.7259 280.557 41.3079 280.557 42.0122ZM288.213 41.1498C288.737 41.1498 289.194 41.2397 289.582 41.4193C289.97 41.599 290.268 41.8577 290.477 42.1954C290.692 42.526 290.8 42.932 290.8 43.4135C290.8 43.9452 290.685 44.4051 290.455 44.7932C290.225 45.174 289.894 45.4687 289.463 45.6771C289.039 45.8783 288.525 45.9789 287.922 45.9789C287.527 45.9789 287.153 45.943 286.801 45.8711C286.456 45.7992 286.165 45.695 285.928 45.5585V44.6638C286.186 44.8219 286.499 44.9477 286.866 45.0411C287.239 45.1273 287.595 45.1705 287.933 45.1705C288.314 45.1705 288.644 45.113 288.924 44.998C289.212 44.8758 289.435 44.6926 289.593 44.4482C289.751 44.1967 289.83 43.8841 289.83 43.5105C289.83 43.0074 289.675 42.623 289.366 42.3571C289.057 42.084 288.569 41.9475 287.9 41.9475C287.699 41.9475 287.469 41.9655 287.21 42.0014C286.952 42.0373 286.743 42.0732 286.585 42.1092L286.111 41.8074L286.402 38.1748H290.261V39.0371H287.21L287.027 41.2684C287.149 41.2468 287.315 41.2217 287.523 41.193C287.731 41.1642 287.961 41.1498 288.213 41.1498Z" fill="black" style="mix-blend-mode:overlay"/>
</g>
<g opacity="0.66">
<path fill-rule="evenodd" clip-rule="evenodd" d="M310.031 35.5027C309.743 35.3841 309.412 35.4495 309.192 35.6697L305.886 39.2931H303.577C303.153 39.2931 302.807 39.6403 302.807 40.063V44.6826C302.807 45.1061 303.153 45.4525 303.577 45.4525H305.886L309.192 49.0774C309.412 49.2976 309.743 49.3638 310.031 49.2445C310.319 49.1251 310.506 48.8441 310.506 48.5323V36.2133C310.506 35.903 310.319 35.6205 310.031 35.5027ZM312.046 36.9832V38.523C314.169 38.523 315.896 40.2508 315.896 42.3728C315.896 44.4955 314.169 46.2225 312.046 46.2225V47.7623C315.018 47.7623 317.435 45.3455 317.435 42.3728C317.435 39.4015 315.018 36.9832 312.046 36.9832ZM312.046 40.0629C313.319 40.0629 314.356 41.1001 314.356 42.3728C314.356 43.647 313.319 44.6826 312.046 44.6826V43.1427C312.47 43.1427 312.816 42.797 312.816 42.3728C312.816 41.9485 312.47 41.6028 312.046 41.6028V40.0629Z" fill="#FF0000" style="mix-blend-mode:saturation"/>
<path fill-rule="evenodd" clip-rule="evenodd" d="M310.031 35.5027C309.743 35.3841 309.412 35.4495 309.192 35.6697L305.886 39.2931H303.577C303.153 39.2931 302.807 39.6403 302.807 40.063V44.6826C302.807 45.1061 303.153 45.4525 303.577 45.4525H305.886L309.192 49.0774C309.412 49.2976 309.743 49.3638 310.031 49.2445C310.319 49.1251 310.506 48.8441 310.506 48.5323V36.2133C310.506 35.903 310.319 35.6205 310.031 35.5027ZM312.046 36.9832V38.523C314.169 38.523 315.896 40.2508 315.896 42.3728C315.896 44.4955 314.169 46.2225 312.046 46.2225V47.7623C315.018 47.7623 317.435 45.3455 317.435 42.3728C317.435 39.4015 315.018 36.9832 312.046 36.9832ZM312.046 40.0629C313.319 40.0629 314.356 41.1001 314.356 42.3728C314.356 43.647 313.319 44.6826 312.046 44.6826V43.1427C312.47 43.1427 312.816 42.797 312.816 42.3728C312.816 41.9485 312.47 41.6028 312.046 41.6028V40.0629Z" fill="white" style="mix-blend-mode:difference"/>
<path fill-rule="evenodd" clip-rule="evenodd" d="M310.031 35.5027C309.743 35.3841 309.412 35.4495 309.192 35.6697L305.886 39.2931H303.577C303.153 39.2931 302.807 39.6403 302.807 40.063V44.6826C302.807 45.1061 303.153 45.4525 303.577 45.4525H305.886L309.192 49.0774C309.412 49.2976 309.743 49.3638 310.031 49.2445C310.319 49.1251 310.506 48.8441 310.506 48.5323V36.2133C310.506 35.903 310.319 35.6205 310.031 35.5027ZM312.046 36.9832V38.523C314.169 38.523 315.896 40.2508 315.896 42.3728C315.896 44.4955 314.169 46.2225 312.046 46.2225V47.7623C315.018 47.7623 317.435 45.3455 317.435 42.3728C317.435 39.4015 315.018 36.9832 312.046 36.9832ZM312.046 40.0629C313.319 40.0629 314.356 41.1001 314.356 42.3728C314.356 43.647 313.319 44.6826 312.046 44.6826V43.1427C312.47 43.1427 312.816 42.797 312.816 42.3728C312.816 41.9485 312.47 41.6028 312.046 41.6028V40.0629Z" fill="white" style="mix-blend-mode:saturation"/>
<path fill-rule="evenodd" clip-rule="evenodd" d="M310.031 35.5027C309.743 35.3841 309.412 35.4495 309.192 35.6697L305.886 39.2931H303.577C303.153 39.2931 302.807 39.6403 302.807 40.063V44.6826C302.807 45.1061 303.153 45.4525 303.577 45.4525H305.886L309.192 49.0774C309.412 49.2976 309.743 49.3638 310.031 49.2445C310.319 49.1251 310.506 48.8441 310.506 48.5323V36.2133C310.506 35.903 310.319 35.6205 310.031 35.5027ZM312.046 36.9832V38.523C314.169 38.523 315.896 40.2508 315.896 42.3728C315.896 44.4955 314.169 46.2225 312.046 46.2225V47.7623C315.018 47.7623 317.435 45.3455 317.435 42.3728C317.435 39.4015 315.018 36.9832 312.046 36.9832ZM312.046 40.0629C313.319 40.0629 314.356 41.1001 314.356 42.3728C314.356 43.647 313.319 44.6826 312.046 44.6826V43.1427C312.47 43.1427 312.816 42.797 312.816 42.3728C312.816 41.9485 312.47 41.6028 312.046 41.6028V40.0629Z" fill="white" style="mix-blend-mode:overlay"/>
<path fill-rule="evenodd" clip-rule="evenodd" d="M310.031 35.5027C309.743 35.3841 309.412 35.4495 309.192 35.6697L305.886 39.2931H303.577C303.153 39.2931 302.807 39.6403 302.807 40.063V44.6826C302.807 45.1061 303.153 45.4525 303.577 45.4525H305.886L309.192 49.0774C309.412 49.2976 309.743 49.3638 310.031 49.2445C310.319 49.1251 310.506 48.8441 310.506 48.5323V36.2133C310.506 35.903 310.319 35.6205 310.031 35.5027ZM312.046 36.9832V38.523C314.169 38.523 315.896 40.2508 315.896 42.3728C315.896 44.4955 314.169 46.2225 312.046 46.2225V47.7623C315.018 47.7623 317.435 45.3455 317.435 42.3728C317.435 39.4015 315.018 36.9832 312.046 36.9832ZM312.046 40.0629C313.319 40.0629 314.356 41.1001 314.356 42.3728C314.356 43.647 313.319 44.6826 312.046 44.6826V43.1427C312.47 43.1427 312.816 42.797 312.816 42.3728C312.816 41.9485 312.47 41.6028 312.046 41.6028V40.0629Z" fill="black" style="mix-blend-mode:overlay"/>
<path fill-rule="evenodd" clip-rule="evenodd" d="M310.031 35.5027C309.743 35.3841 309.412 35.4495 309.192 35.6697L305.886 39.2931H303.577C303.153 39.2931 302.807 39.6403 302.807 40.063V44.6826C302.807 45.1061 303.153 45.4525 303.577 45.4525H305.886L309.192 49.0774C309.412 49.2976 309.743 49.3638 310.031 49.2445C310.319 49.1251 310.506 48.8441 310.506 48.5323V36.2133C310.506 35.903 310.319 35.6205 310.031 35.5027ZM312.046 36.9832V38.523C314.169 38.523 315.896 40.2508 315.896 42.3728C315.896 44.4955 314.169 46.2225 312.046 46.2225V47.7623C315.018 47.7623 317.435 45.3455 317.435 42.3728C317.435 39.4015 315.018 36.9832 312.046 36.9832ZM312.046 40.0629C313.319 40.0629 314.356 41.1001 314.356 42.3728C314.356 43.647 313.319 44.6826 312.046 44.6826V43.1427C312.47 43.1427 312.816 42.797 312.816 42.3728C312.816 41.9485 312.47 41.6028 312.046 41.6028V40.0629Z" fill="white" style="mix-blend-mode:overlay"/>
<path fill-rule="evenodd" clip-rule="evenodd" d="M310.031 35.5027C309.743 35.3841 309.412 35.4495 309.192 35.6697L305.886 39.2931H303.577C303.153 39.2931 302.807 39.6403 302.807 40.063V44.6826C302.807 45.1061 303.153 45.4525 303.577 45.4525H305.886L309.192 49.0774C309.412 49.2976 309.743 49.3638 310.031 49.2445C310.319 49.1251 310.506 48.8441 310.506 48.5323V36.2133C310.506 35.903 310.319 35.6205 310.031 35.5027ZM312.046 36.9832V38.523C314.169 38.523 315.896 40.2508 315.896 42.3728C315.896 44.4955 314.169 46.2225 312.046 46.2225V47.7623C315.018 47.7623 317.435 45.3455 317.435 42.3728C317.435 39.4015 315.018 36.9832 312.046 36.9832ZM312.046 40.0629C313.319 40.0629 314.356 41.1001 314.356 42.3728C314.356 43.647 313.319 44.6826 312.046 44.6826V43.1427C312.47 43.1427 312.816 42.797 312.816 42.3728C312.816 41.9485 312.47 41.6028 312.046 41.6028V40.0629Z" fill="black" style="mix-blend-mode:overlay"/>
</g>
</g>
<defs>
<linearGradient id="paint0_linear_352_418" x1="187.261" y1="0.871094" x2="187.261" y2="83.8711" gradientUnits="userSpaceOnUse">
<stop stop-color="#EFEFEF"/>
<stop offset="1" stop-color="#EFEFEF" stop-opacity="0.58"/>
</linearGradient>
<clipPath id="clip0_352_418">
<rect x="154.537" y="23.8926" width="174.448" height="36.957" rx="18.4785" fill="white"/>
</clipPath>
</defs>
</svg>
