<svg width="376" height="84" viewBox="0 0 376 84" fill="none" xmlns="http://www.w3.org/2000/svg">
<rect x="0.794922" y="0.883789" width="375" height="83" rx="8.32639" fill="white" fill-opacity="0.05"/>
<rect x="1.21124" y="1.30011" width="374.167" height="82.1674" rx="7.91007" stroke="url(#paint0_linear_352_392)" stroke-opacity="0.2" stroke-width="0.832639"/>
<g clip-path="url(#clip0_352_392)">
<rect x="14.1172" y="16.3838" width="52" height="52" rx="16" fill="white" fill-opacity="0.07"/>
<path d="M47.1933 45.951C47.3308 46.0328 47.5006 46.1286 47.6929 46.2371C48.5353 46.7123 49.8087 47.4308 50.6811 48.2846C51.2266 48.8187 51.7451 49.5225 51.8393 50.3847C51.9395 51.3016 51.5396 52.1621 50.737 52.9266C49.3526 54.2455 47.6912 55.3025 45.5423 55.3025H35.1207C32.9718 55.3025 31.3104 54.2455 29.926 52.9266C29.1235 52.1621 28.7235 51.3016 28.8238 50.3847C28.918 49.5225 29.4364 48.8187 29.982 48.2846C30.8544 47.4308 32.1278 46.7123 32.9702 46.2371C33.1625 46.1288 33.3323 46.0328 33.4697 45.951C37.67 43.4499 42.9931 43.4499 47.1933 45.951Z" fill="#E9995F"/>
<path opacity="0.4" d="M34.127 36.0981C34.127 32.6714 36.9048 29.8936 40.3315 29.8936C43.7582 29.8936 46.536 32.6714 46.536 36.0981C46.536 39.5248 43.7582 42.3026 40.3315 42.3026C36.9048 42.3026 34.127 39.5248 34.127 36.0981Z" fill="#E9995F"/>
<g filter="url(#filter0_f_352_392)">
<circle cx="40.6172" cy="45.8838" r="6.5" fill="#E9995F"/>
</g>
</g>
<path d="M83.6432 26.3786C82.7107 26.3786 81.9113 26.2143 81.2452 25.8857C80.588 25.5571 80.0817 25.0464 79.7265 24.3536C79.3801 23.652 79.2069 22.7505 79.2069 21.6492C79.2069 20.0417 79.5977 18.8516 80.3793 18.0789C81.1608 17.3062 82.2488 16.9198 83.6432 16.9198C84.3981 16.9198 85.0776 17.0486 85.6815 17.3062C86.2943 17.5637 86.7784 17.9545 87.1336 18.4785C87.4978 18.9937 87.6799 19.6509 87.6799 20.4502H85.908C85.908 20.0062 85.8103 19.6331 85.6149 19.3312C85.4284 19.0203 85.1664 18.7849 84.8289 18.6251C84.4914 18.4652 84.1051 18.3853 83.6699 18.3853C83.0659 18.3853 82.5641 18.5052 82.1645 18.745C81.7648 18.9759 81.4673 19.3223 81.2719 19.7841C81.0854 20.246 80.9921 20.8188 80.9921 21.5027V21.7958C80.9921 22.4885 81.0854 23.0658 81.2719 23.5277C81.4673 23.9895 81.7603 24.3359 82.1511 24.5668C82.5508 24.7977 83.057 24.9132 83.6699 24.9132C84.1317 24.9132 84.5358 24.8377 84.8822 24.6867C85.2286 24.5268 85.495 24.2959 85.6815 23.9939C85.8769 23.6831 85.9746 23.3056 85.9746 22.8616H87.6799C87.6799 23.6609 87.5022 24.3226 87.147 24.8466C86.7917 25.3617 86.3077 25.748 85.6948 26.0056C85.0909 26.2543 84.407 26.3786 83.6432 26.3786ZM89.0747 26.2188V16.5868H90.7V20.0106H90.7933C90.9443 19.8241 91.1219 19.6598 91.3262 19.5177C91.5305 19.3756 91.7614 19.2645 92.0189 19.1846C92.2854 19.0958 92.5785 19.0514 92.8982 19.0514C93.3423 19.0514 93.7331 19.1313 94.0706 19.2912C94.4169 19.4511 94.6878 19.7086 94.8832 20.0639C95.0786 20.4191 95.1763 20.8943 95.1763 21.4894V26.2188H93.5377V21.7825C93.5377 21.5338 93.5066 21.3295 93.4444 21.1696C93.3911 21.0009 93.3068 20.8677 93.1913 20.77C93.0847 20.6634 92.9515 20.5879 92.7916 20.5435C92.6318 20.4991 92.4541 20.4769 92.2587 20.4769C91.9657 20.4769 91.6992 20.5479 91.4594 20.69C91.2285 20.8321 91.042 21.0275 90.8999 21.2762C90.7667 21.5249 90.7 21.8135 90.7 22.1421V26.2188H89.0747ZM98.6532 26.3786C98.4578 26.3786 98.2313 26.352 97.9738 26.2987C97.7251 26.2543 97.4808 26.1655 97.241 26.0322C97.0101 25.899 96.8192 25.7036 96.6682 25.4461C96.5172 25.1796 96.4417 24.8332 96.4417 24.4069C96.4417 23.9273 96.5483 23.5321 96.7614 23.2212C96.9746 22.9015 97.2721 22.6528 97.654 22.4752C98.0448 22.2887 98.5067 22.1599 99.0395 22.0889C99.5813 22.0089 100.172 21.969 100.811 21.969V21.3961C100.811 21.1918 100.78 21.0098 100.718 20.8499C100.656 20.69 100.541 20.5657 100.372 20.4769C100.212 20.3792 99.9677 20.3303 99.639 20.3303C99.3104 20.3303 99.0529 20.3703 98.8664 20.4502C98.6798 20.5302 98.5511 20.6279 98.48 20.7433C98.409 20.8588 98.3734 20.9787 98.3734 21.103V21.2895H96.8014C96.7925 21.2451 96.7881 21.2007 96.7881 21.1563C96.7881 21.1119 96.7881 21.0586 96.7881 20.9964C96.7881 20.5968 96.908 20.2504 97.1478 19.9573C97.3876 19.6642 97.7206 19.4422 98.147 19.2912C98.5733 19.1313 99.0662 19.0514 99.6257 19.0514C100.265 19.0514 100.789 19.1402 101.198 19.3178C101.615 19.4955 101.926 19.7486 102.13 20.0772C102.335 20.4058 102.437 20.8055 102.437 21.2762V24.5801C102.437 24.7489 102.486 24.8688 102.583 24.9398C102.681 25.0109 102.788 25.0464 102.903 25.0464H103.329V26.1655C103.24 26.201 103.112 26.241 102.943 26.2854C102.774 26.3387 102.565 26.3653 102.317 26.3653C102.086 26.3653 101.877 26.3253 101.691 26.2454C101.513 26.1743 101.362 26.0678 101.238 25.9257C101.113 25.7836 101.025 25.6148 100.971 25.4194H100.891C100.74 25.6059 100.558 25.7747 100.345 25.9257C100.141 26.0678 99.8966 26.1788 99.6124 26.2587C99.3371 26.3386 99.0173 26.3786 98.6532 26.3786ZM99.1461 25.0464C99.4126 25.0464 99.6479 25.0064 99.8522 24.9265C100.065 24.8466 100.239 24.7355 100.372 24.5934C100.514 24.4513 100.62 24.2781 100.692 24.0739C100.771 23.8696 100.811 23.6476 100.811 23.4078V23.088C100.323 23.088 99.87 23.1191 99.4525 23.1813C99.044 23.2435 98.7154 23.3589 98.4667 23.5277C98.2269 23.6964 98.107 23.9362 98.107 24.2471C98.107 24.4069 98.1425 24.549 98.2136 24.6734C98.2935 24.7888 98.409 24.8821 98.5599 24.9531C98.7198 25.0153 98.9152 25.0464 99.1461 25.0464ZM104.257 26.2188V19.2113H105.616L105.749 20.317H105.843C105.932 20.095 106.038 19.8907 106.162 19.7042C106.296 19.5088 106.464 19.3534 106.669 19.2379C106.873 19.1136 107.122 19.0514 107.415 19.0514C107.557 19.0514 107.686 19.0647 107.801 19.0914C107.925 19.118 108.019 19.1447 108.081 19.1713V20.7033H107.588C107.313 20.7033 107.068 20.7433 106.855 20.8232C106.642 20.8943 106.46 21.0098 106.309 21.1696C106.167 21.3295 106.06 21.5293 105.989 21.7691C105.918 22.0089 105.883 22.2887 105.883 22.6084V26.2188H104.257ZM110.752 26.3786C110.557 26.3786 110.331 26.352 110.073 26.2987C109.824 26.2543 109.58 26.1655 109.34 26.0322C109.109 25.899 108.918 25.7036 108.767 25.4461C108.616 25.1796 108.541 24.8332 108.541 24.4069C108.541 23.9273 108.648 23.5321 108.861 23.2212C109.074 22.9015 109.371 22.6528 109.753 22.4752C110.144 22.2887 110.606 22.1599 111.139 22.0889C111.681 22.0089 112.271 21.969 112.911 21.969V21.3961C112.911 21.1918 112.88 21.0098 112.817 20.8499C112.755 20.69 112.64 20.5657 112.471 20.4769C112.311 20.3792 112.067 20.3303 111.738 20.3303C111.41 20.3303 111.152 20.3703 110.966 20.4502C110.779 20.5302 110.65 20.6279 110.579 20.7433C110.508 20.8588 110.473 20.9787 110.473 21.103V21.2895H108.901C108.892 21.2451 108.887 21.2007 108.887 21.1563C108.887 21.1119 108.887 21.0586 108.887 20.9964C108.887 20.5968 109.007 20.2504 109.247 19.9573C109.487 19.6642 109.82 19.4422 110.246 19.2912C110.673 19.1313 111.165 19.0514 111.725 19.0514C112.364 19.0514 112.888 19.1402 113.297 19.3178C113.714 19.4955 114.025 19.7486 114.23 20.0772C114.434 20.4058 114.536 20.8055 114.536 21.2762V24.5801C114.536 24.7489 114.585 24.8688 114.683 24.9398C114.78 25.0109 114.887 25.0464 115.002 25.0464H115.429V26.1655C115.34 26.201 115.211 26.241 115.042 26.2854C114.873 26.3387 114.665 26.3653 114.416 26.3653C114.185 26.3653 113.976 26.3253 113.79 26.2454C113.612 26.1743 113.461 26.0678 113.337 25.9257C113.213 25.7836 113.124 25.6148 113.071 25.4194H112.991C112.84 25.6059 112.658 25.7747 112.444 25.9257C112.24 26.0678 111.996 26.1788 111.712 26.2587C111.436 26.3386 111.117 26.3786 110.752 26.3786ZM111.245 25.0464C111.512 25.0464 111.747 25.0064 111.951 24.9265C112.165 24.8466 112.338 24.7355 112.471 24.5934C112.613 24.4513 112.72 24.2781 112.791 24.0739C112.871 23.8696 112.911 23.6476 112.911 23.4078V23.088C112.422 23.088 111.969 23.1191 111.552 23.1813C111.143 23.2435 110.815 23.3589 110.566 23.5277C110.326 23.6964 110.206 23.9362 110.206 24.2471C110.206 24.4069 110.242 24.549 110.313 24.6734C110.393 24.7888 110.508 24.8821 110.659 24.9531C110.819 25.0153 111.014 25.0464 111.245 25.0464ZM119.274 26.3786C118.546 26.3786 117.938 26.2498 117.449 25.9923C116.969 25.7258 116.61 25.3217 116.37 24.78C116.13 24.2382 116.01 23.5499 116.01 22.715C116.01 21.8713 116.13 21.183 116.37 20.6501C116.619 20.1083 116.983 19.7086 117.462 19.4511C117.951 19.1846 118.555 19.0514 119.274 19.0514C119.745 19.0514 120.162 19.1091 120.527 19.2246C120.891 19.34 121.202 19.5177 121.459 19.7575C121.726 19.9884 121.925 20.277 122.059 20.6234C122.192 20.9698 122.258 21.3739 122.258 21.8357H120.606C120.606 21.5071 120.558 21.2362 120.46 21.0231C120.362 20.8099 120.211 20.6501 120.007 20.5435C119.812 20.428 119.558 20.3703 119.248 20.3703C118.883 20.3703 118.586 20.4547 118.355 20.6234C118.124 20.7922 117.951 21.0453 117.835 21.3828C117.729 21.7114 117.676 22.1288 117.676 22.6351V22.8083C117.676 23.3056 117.729 23.7231 117.835 24.0606C117.951 24.398 118.129 24.6512 118.368 24.8199C118.608 24.9798 118.923 25.0597 119.314 25.0597C119.616 25.0597 119.865 25.0064 120.06 24.8998C120.265 24.7844 120.42 24.6156 120.527 24.3936C120.633 24.1716 120.686 23.9051 120.686 23.5943H122.258C122.258 24.0295 122.192 24.4203 122.059 24.7666C121.925 25.113 121.73 25.4061 121.472 25.6459C121.215 25.8857 120.9 26.0678 120.527 26.1921C120.162 26.3164 119.745 26.3786 119.274 26.3786ZM125.494 26.3786C125.059 26.3786 124.717 26.2942 124.468 26.1255C124.22 25.9479 124.042 25.7258 123.935 25.4594C123.838 25.1841 123.789 24.9043 123.789 24.6201V20.5435H122.95V19.2113H123.829L124.122 17.2529H125.414V19.2113H126.626V20.5435H125.414V24.4602C125.414 24.6467 125.463 24.7933 125.561 24.8998C125.658 24.9975 125.805 25.0464 126 25.0464H126.626V26.1655C126.538 26.201 126.427 26.2321 126.293 26.2587C126.169 26.2942 126.036 26.3209 125.894 26.3387C125.752 26.3653 125.618 26.3786 125.494 26.3786ZM130.842 26.3786C130.096 26.3786 129.475 26.2498 128.977 25.9923C128.48 25.7258 128.107 25.3217 127.858 24.78C127.609 24.2382 127.485 23.5499 127.485 22.715C127.485 21.8713 127.609 21.183 127.858 20.6501C128.107 20.1083 128.48 19.7086 128.977 19.4511C129.475 19.1846 130.096 19.0514 130.842 19.0514C131.517 19.0514 132.081 19.1802 132.534 19.4377C132.996 19.6864 133.342 20.0728 133.573 20.5968C133.804 21.1208 133.92 21.8002 133.92 22.6351V23.1147H129.15C129.168 23.5499 129.235 23.9184 129.35 24.2204C129.466 24.5135 129.643 24.7355 129.883 24.8865C130.132 25.0286 130.456 25.0997 130.856 25.0997C131.06 25.0997 131.251 25.073 131.428 25.0197C131.606 24.9665 131.762 24.8865 131.895 24.78C132.028 24.6645 132.13 24.5224 132.201 24.3536C132.281 24.1849 132.321 23.9895 132.321 23.7675H133.92C133.92 24.2115 133.84 24.5979 133.68 24.9265C133.529 25.2551 133.311 25.526 133.027 25.7391C132.752 25.9523 132.428 26.1122 132.055 26.2188C131.682 26.3253 131.277 26.3786 130.842 26.3786ZM129.177 21.969H132.228C132.228 21.6759 132.192 21.4272 132.121 21.2229C132.059 21.0186 131.966 20.8499 131.841 20.7167C131.726 20.5834 131.584 20.4902 131.415 20.4369C131.246 20.3747 131.055 20.3437 130.842 20.3437C130.496 20.3437 130.203 20.4014 129.963 20.5168C129.732 20.6323 129.554 20.8099 129.43 21.0497C129.306 21.2895 129.221 21.5959 129.177 21.969ZM135.299 26.2188V19.2113H136.658L136.791 20.317H136.885C136.973 20.095 137.08 19.8907 137.204 19.7042C137.337 19.5088 137.506 19.3534 137.711 19.2379C137.915 19.1136 138.163 19.0514 138.457 19.0514C138.599 19.0514 138.727 19.0647 138.843 19.0914C138.967 19.118 139.061 19.1447 139.123 19.1713V20.7033H138.63C138.354 20.7033 138.11 20.7433 137.897 20.8232C137.684 20.8943 137.502 21.0098 137.351 21.1696C137.209 21.3295 137.102 21.5293 137.031 21.7691C136.96 22.0089 136.925 22.2887 136.925 22.6084V26.2188H135.299ZM142.679 26.2188V17.0797H144.331L148.235 22.4752C148.279 22.5285 148.332 22.604 148.395 22.7017C148.457 22.7905 148.514 22.8793 148.568 22.9681C148.621 23.0569 148.657 23.128 148.674 23.1813H148.741C148.741 23.0569 148.741 22.937 148.741 22.8216C148.741 22.7061 148.741 22.5907 148.741 22.4752V17.0797H150.406V26.2188H148.768L144.851 20.7833C144.78 20.6767 144.695 20.5479 144.598 20.3969C144.509 20.2371 144.447 20.1261 144.411 20.0639H144.345C144.345 20.1793 144.345 20.2992 144.345 20.4236C144.345 20.539 144.345 20.6589 144.345 20.7833V26.2188H142.679ZM154.089 26.3786C153.893 26.3786 153.667 26.352 153.409 26.2987C153.161 26.2543 152.916 26.1655 152.677 26.0322C152.446 25.899 152.255 25.7036 152.104 25.4461C151.953 25.1796 151.877 24.8332 151.877 24.4069C151.877 23.9273 151.984 23.5321 152.197 23.2212C152.41 22.9015 152.708 22.6528 153.09 22.4752C153.48 22.2887 153.942 22.1599 154.475 22.0889C155.017 22.0089 155.607 21.969 156.247 21.969V21.3961C156.247 21.1918 156.216 21.0098 156.154 20.8499C156.092 20.69 155.976 20.5657 155.807 20.4769C155.647 20.3792 155.403 20.3303 155.075 20.3303C154.746 20.3303 154.488 20.3703 154.302 20.4502C154.115 20.5302 153.987 20.6279 153.916 20.7433C153.844 20.8588 153.809 20.9787 153.809 21.103V21.2895H152.237C152.228 21.2451 152.224 21.2007 152.224 21.1563C152.224 21.1119 152.224 21.0586 152.224 20.9964C152.224 20.5968 152.344 20.2504 152.583 19.9573C152.823 19.6642 153.156 19.4422 153.582 19.2912C154.009 19.1313 154.502 19.0514 155.061 19.0514C155.701 19.0514 156.225 19.1402 156.633 19.3178C157.051 19.4955 157.362 19.7486 157.566 20.0772C157.77 20.4058 157.872 20.8055 157.872 21.2762V24.5801C157.872 24.7489 157.921 24.8688 158.019 24.9398C158.116 25.0109 158.223 25.0464 158.339 25.0464H158.765V26.1655C158.676 26.201 158.547 26.241 158.378 26.2854C158.21 26.3387 158.001 26.3653 157.752 26.3653C157.521 26.3653 157.313 26.3253 157.126 26.2454C156.949 26.1743 156.798 26.0678 156.673 25.9257C156.549 25.7836 156.46 25.6148 156.407 25.4194H156.327C156.176 25.6059 155.994 25.7747 155.781 25.9257C155.576 26.0678 155.332 26.1788 155.048 26.2587C154.773 26.3386 154.453 26.3786 154.089 26.3786ZM154.582 25.0464C154.848 25.0464 155.083 25.0064 155.288 24.9265C155.501 24.8466 155.674 24.7355 155.807 24.5934C155.949 24.4513 156.056 24.2781 156.127 24.0739C156.207 23.8696 156.247 23.6476 156.247 23.4078V23.088C155.758 23.088 155.306 23.1191 154.888 23.1813C154.48 23.2435 154.151 23.3589 153.902 23.5277C153.662 23.6964 153.543 23.9362 153.543 24.2471C153.543 24.4069 153.578 24.549 153.649 24.6734C153.729 24.7888 153.844 24.8821 153.995 24.9531C154.155 25.0153 154.351 25.0464 154.582 25.0464ZM159.693 26.2188V19.2113H161.052L161.185 20.1438H161.278C161.429 19.9307 161.602 19.7441 161.798 19.5843C161.993 19.4155 162.215 19.2868 162.464 19.1979C162.722 19.1002 163.001 19.0514 163.303 19.0514C163.712 19.0514 164.076 19.1358 164.396 19.3045C164.715 19.4733 164.964 19.753 165.142 20.1438H165.235C165.386 19.9307 165.564 19.7441 165.768 19.5843C165.972 19.4155 166.207 19.2868 166.474 19.1979C166.74 19.1002 167.029 19.0514 167.34 19.0514C167.757 19.0514 168.126 19.1269 168.446 19.2779C168.765 19.4289 169.018 19.6775 169.205 20.0239C169.391 20.3703 169.485 20.8321 169.485 21.4094V26.2188H167.859V21.7425C167.859 21.5027 167.833 21.3029 167.78 21.143C167.726 20.9742 167.651 20.8455 167.553 20.7566C167.464 20.6589 167.349 20.5879 167.207 20.5435C167.073 20.4991 166.927 20.4769 166.767 20.4769C166.509 20.4769 166.279 20.5479 166.074 20.69C165.87 20.8321 165.706 21.0275 165.581 21.2762C165.466 21.5249 165.408 21.8135 165.408 22.1421V26.2188H163.783V21.7425C163.783 21.5027 163.756 21.3029 163.703 21.143C163.65 20.9742 163.574 20.8455 163.476 20.7566C163.388 20.6589 163.272 20.5879 163.13 20.5435C162.997 20.4991 162.85 20.4769 162.69 20.4769C162.433 20.4769 162.197 20.5479 161.984 20.69C161.78 20.8321 161.616 21.0275 161.491 21.2762C161.376 21.5249 161.318 21.8135 161.318 22.1421V26.2188H159.693ZM174.179 26.3786C173.432 26.3786 172.811 26.2498 172.313 25.9923C171.816 25.7258 171.443 25.3217 171.194 24.78C170.946 24.2382 170.821 23.5499 170.821 22.715C170.821 21.8713 170.946 21.183 171.194 20.6501C171.443 20.1083 171.816 19.7086 172.313 19.4511C172.811 19.1846 173.432 19.0514 174.179 19.0514C174.854 19.0514 175.418 19.1802 175.87 19.4377C176.332 19.6864 176.679 20.0728 176.91 20.5968C177.141 21.1208 177.256 21.8002 177.256 22.6351V23.1147H172.487C172.504 23.5499 172.571 23.9184 172.686 24.2204C172.802 24.5135 172.98 24.7355 173.219 24.8865C173.468 25.0286 173.792 25.0997 174.192 25.0997C174.396 25.0997 174.587 25.073 174.765 25.0197C174.942 24.9665 175.098 24.8865 175.231 24.78C175.364 24.6645 175.466 24.5224 175.537 24.3536C175.617 24.1849 175.657 23.9895 175.657 23.7675H177.256C177.256 24.2115 177.176 24.5979 177.016 24.9265C176.865 25.2551 176.648 25.526 176.363 25.7391C176.088 25.9523 175.764 26.1122 175.391 26.2188C175.018 26.3253 174.614 26.3786 174.179 26.3786ZM172.513 21.969H175.564C175.564 21.6759 175.529 21.4272 175.457 21.2229C175.395 21.0186 175.302 20.8499 175.178 20.7167C175.062 20.5834 174.92 20.4902 174.751 20.4369C174.583 20.3747 174.392 20.3437 174.179 20.3437C173.832 20.3437 173.539 20.4014 173.299 20.5168C173.068 20.6323 172.891 20.8099 172.766 21.0497C172.642 21.2895 172.558 21.5959 172.513 21.969Z" fill="white"/>
<g filter="url(#filter1_i_352_392)">
<rect x="78.6074" y="35.5488" width="283.866" height="37" rx="8" fill="white" fill-opacity="0.01"/>
<rect x="78.6074" y="35.5488" width="283.866" height="37" rx="8" fill="url(#paint1_linear_352_392)" fill-opacity="0.06"/>
<rect x="79.1074" y="36.0488" width="282.866" height="36" rx="7.5" stroke="url(#paint2_linear_352_392)" stroke-opacity="0.2"/>
<path d="M94.6534 59.6888C93.9721 59.6888 93.3701 59.5302 92.8474 59.2128C92.3248 58.8862 91.9141 58.4428 91.6154 57.8828C91.3168 57.3228 91.1674 56.6788 91.1674 55.9508C91.1674 55.2228 91.3121 54.5835 91.6014 54.0328C91.9001 53.4728 92.3154 53.0388 92.8474 52.7308C93.3794 52.4228 93.9908 52.2688 94.6814 52.2688C95.3441 52.2688 95.9181 52.4135 96.4034 52.7028C96.8981 52.9922 97.2761 53.3982 97.5374 53.9208C97.8081 54.4435 97.9434 55.0595 97.9434 55.7688C97.9434 55.8622 97.9388 55.9508 97.9294 56.0348C97.9294 56.1188 97.9201 56.2122 97.9014 56.3148H92.0074V55.3768H97.2154L96.8514 55.8948C96.8514 55.0362 96.6601 54.3782 96.2774 53.9208C95.9041 53.4542 95.3721 53.2208 94.6814 53.2208C93.9721 53.2208 93.3981 53.4682 92.9594 53.9628C92.5301 54.4482 92.3154 55.1062 92.3154 55.9368C92.3154 56.7862 92.5301 57.4675 92.9594 57.9808C93.3981 58.4848 93.9814 58.7368 94.7094 58.7368C95.1668 58.7368 95.5681 58.6388 95.9134 58.4428C96.2588 58.2375 96.5108 57.9482 96.6694 57.5748H97.7334C97.5001 58.2282 97.1081 58.7462 96.5574 59.1288C96.0161 59.5022 95.3814 59.6888 94.6534 59.6888ZM98.9449 59.5488V58.1068H100.387V59.5488H98.9449ZM104.714 62.5588C103.865 62.5588 103.155 62.3582 102.586 61.9568C102.026 61.5648 101.685 61.0422 101.564 60.3888H102.628C102.731 60.7622 102.959 61.0562 103.314 61.2708C103.678 61.4948 104.168 61.6068 104.784 61.6068C105.512 61.6068 106.063 61.4062 106.436 61.0048C106.809 60.6128 106.996 60.0342 106.996 59.2688V57.7428L107.136 57.7708C106.977 58.3122 106.66 58.7462 106.184 59.0728C105.708 59.3902 105.143 59.5488 104.49 59.5488C103.865 59.5488 103.314 59.3995 102.838 59.1008C102.362 58.7928 101.993 58.3682 101.732 57.8268C101.471 57.2855 101.34 56.6555 101.34 55.9368C101.34 55.2088 101.475 54.5695 101.746 54.0188C102.017 53.4682 102.395 53.0435 102.88 52.7448C103.375 52.4368 103.949 52.2828 104.602 52.2828C105.274 52.2828 105.834 52.4462 106.282 52.7728C106.739 53.0995 107.043 53.5662 107.192 54.1728L107.066 54.1868V52.4088H108.116V59.2688C108.116 60.2862 107.813 61.0888 107.206 61.6768C106.599 62.2648 105.769 62.5588 104.714 62.5588ZM104.77 58.5828C105.47 58.5828 106.025 58.3402 106.436 57.8548C106.847 57.3695 107.052 56.7115 107.052 55.8808C107.052 55.0688 106.847 54.4295 106.436 53.9628C106.025 53.4868 105.47 53.2488 104.77 53.2488C104.061 53.2488 103.501 53.4868 103.09 53.9628C102.689 54.4388 102.488 55.0922 102.488 55.9228C102.488 56.7348 102.693 57.3835 103.104 57.8688C103.515 58.3448 104.07 58.5828 104.77 58.5828ZM110.306 59.5488V58.1068H111.748V59.5488H110.306ZM116.817 59.5488V49.4688H117.965V59.5488H116.817ZM117.405 59.5488V58.5408H123.565V59.5488H117.405ZM117.405 54.8028V53.7948H123.061V54.8028H117.405ZM117.405 50.4768V49.4688H123.453V50.4768H117.405ZM125.661 59.5488V49.4688H126.781V59.5488H125.661ZM131.446 59.6888C130.569 59.6888 129.869 59.4882 129.346 59.0868C128.824 58.6762 128.525 58.0975 128.45 57.3508H129.528C129.594 57.8082 129.794 58.1582 130.13 58.4008C130.466 58.6435 130.914 58.7648 131.474 58.7648C131.969 58.7648 132.356 58.6715 132.636 58.4848C132.916 58.2982 133.056 58.0322 133.056 57.6868C133.056 57.4442 132.977 57.2342 132.818 57.0568C132.66 56.8702 132.342 56.7162 131.866 56.5948L130.718 56.3008C130.065 56.1328 129.575 55.8762 129.248 55.5308C128.922 55.1762 128.758 54.7562 128.758 54.2708C128.758 53.6548 128.987 53.1695 129.444 52.8148C129.902 52.4508 130.522 52.2688 131.306 52.2688C132.081 52.2688 132.711 52.4555 133.196 52.8288C133.682 53.2022 133.957 53.7202 134.022 54.3828H132.944C132.879 54.0002 132.702 53.7062 132.412 53.5008C132.123 53.2955 131.74 53.1928 131.264 53.1928C130.807 53.1928 130.452 53.2815 130.2 53.4588C129.948 53.6268 129.822 53.8695 129.822 54.1868C129.822 54.4295 129.911 54.6395 130.088 54.8168C130.275 54.9942 130.583 55.1435 131.012 55.2648L132.132 55.5728C132.795 55.7502 133.294 56.0208 133.63 56.3848C133.966 56.7488 134.134 57.1875 134.134 57.7008C134.134 58.3262 133.896 58.8162 133.42 59.1708C132.944 59.5162 132.286 59.6888 131.446 59.6888ZM135.751 59.5488V52.4088H136.871V59.5488H135.751ZM135.667 50.7848V49.4688H136.955V50.7848H135.667ZM142.013 59.6888C141.331 59.6888 140.729 59.5302 140.207 59.2128C139.684 58.8862 139.273 58.4428 138.975 57.8828C138.676 57.3228 138.527 56.6788 138.527 55.9508C138.527 55.2228 138.671 54.5835 138.961 54.0328C139.259 53.4728 139.675 53.0388 140.207 52.7308C140.739 52.4228 141.35 52.2688 142.041 52.2688C142.703 52.2688 143.277 52.4135 143.763 52.7028C144.257 52.9922 144.635 53.3982 144.897 53.9208C145.167 54.4435 145.303 55.0595 145.303 55.7688C145.303 55.8622 145.298 55.9508 145.289 56.0348C145.289 56.1188 145.279 56.2122 145.261 56.3148H139.367V55.3768H144.575L144.211 55.8948C144.211 55.0362 144.019 54.3782 143.637 53.9208C143.263 53.4542 142.731 53.2208 142.041 53.2208C141.331 53.2208 140.757 53.4682 140.319 53.9628C139.889 54.4482 139.675 55.1062 139.675 55.9368C139.675 56.7862 139.889 57.4675 140.319 57.9808C140.757 58.4848 141.341 58.7368 142.069 58.7368C142.526 58.7368 142.927 58.6388 143.273 58.4428C143.618 58.2375 143.87 57.9482 144.029 57.5748H145.093C144.859 58.2282 144.467 58.7462 143.917 59.1288C143.375 59.5022 142.741 59.6888 142.013 59.6888Z" fill="white"/>
</g>
<defs>
<filter id="filter0_f_352_392" x="16.5172" y="21.7838" width="48.2" height="48.2" filterUnits="userSpaceOnUse" color-interpolation-filters="sRGB">
<feFlood flood-opacity="0" result="BackgroundImageFix"/>
<feBlend mode="normal" in="SourceGraphic" in2="BackgroundImageFix" result="shape"/>
<feGaussianBlur stdDeviation="8.8" result="effect1_foregroundBlur_352_392"/>
</filter>
<filter id="filter1_i_352_392" x="-41.3926" y="-84.4512" width="523.865" height="277" filterUnits="userSpaceOnUse" color-interpolation-filters="sRGB">
<feFlood flood-opacity="0" result="BackgroundImageFix"/>
<feBlend mode="normal" in="SourceGraphic" in2="BackgroundImageFix" result="shape"/>
<feColorMatrix in="SourceAlpha" type="matrix" values="0 0 0 0 0 0 0 0 0 0 0 0 0 0 0 0 0 0 127 0" result="hardAlpha"/>
<feOffset dy="5"/>
<feGaussianBlur stdDeviation="4.5"/>
<feComposite in2="hardAlpha" operator="arithmetic" k2="-1" k3="1"/>
<feColorMatrix type="matrix" values="0 0 0 0 1 0 0 0 0 1 0 0 0 0 1 0 0 0 0.08 0"/>
<feBlend mode="normal" in2="shape" result="effect1_innerShadow_352_392"/>
</filter>
<linearGradient id="paint0_linear_352_392" x1="188.295" y1="0.883789" x2="188.295" y2="83.8838" gradientUnits="userSpaceOnUse">
<stop stop-color="#EFEFEF"/>
<stop offset="1" stop-color="#EFEFEF" stop-opacity="0.58"/>
</linearGradient>
<linearGradient id="paint1_linear_352_392" x1="220.54" y1="35.5488" x2="220.54" y2="72.5488" gradientUnits="userSpaceOnUse">
<stop stop-color="white" stop-opacity="0"/>
<stop offset="1" stop-color="white"/>
</linearGradient>
<linearGradient id="paint2_linear_352_392" x1="362.473" y1="54.0488" x2="78.6074" y2="54.0488" gradientUnits="userSpaceOnUse">
<stop stop-color="white" stop-opacity="0.2"/>
<stop offset="0.5" stop-color="white"/>
<stop offset="1" stop-color="white" stop-opacity="0.2"/>
</linearGradient>
<clipPath id="clip0_352_392">
<rect x="14.1172" y="16.3838" width="52" height="52" rx="16" fill="white"/>
</clipPath>
</defs>
</svg>
